<?xml version="1.0" encoding="UTF-8" standalone="no"?>
<!-- Created with Inkscape (http://www.inkscape.org/) -->

<svg
   xmlns:osb="http://www.openswatchbook.org/uri/2009/osb"
   xmlns:dc="http://purl.org/dc/elements/1.1/"
   xmlns:cc="http://creativecommons.org/ns#"
   xmlns:rdf="http://www.w3.org/1999/02/22-rdf-syntax-ns#"
   xmlns:svg="http://www.w3.org/2000/svg"
   xmlns="http://www.w3.org/2000/svg"
   xmlns:xlink="http://www.w3.org/1999/xlink"
   xmlns:sodipodi="http://sodipodi.sourceforge.net/DTD/sodipodi-0.dtd"
   xmlns:inkscape="http://www.inkscape.org/namespaces/inkscape"
   width="128"
   height="128"
   id="svg3513"
   version="1.1"
   inkscape:version="0.48.1 "
   sodipodi:docname="18.svg">
  <defs
     id="defs3515">
    <inkscape:path-effect
       is_visible="true"
       id="path-effect7110"
       effect="spiro" />
    <inkscape:path-effect
       effect="spiro"
       id="path-effect7107"
       is_visible="true" />
    <inkscape:path-effect
       effect="spiro"
       id="path-effect7104"
       is_visible="true" />
    <linearGradient
       inkscape:collect="always"
       xlink:href="#linearGradient4704"
       id="linearGradient7284"
       gradientUnits="userSpaceOnUse"
       x1="50.18922"
       y1="932.19568"
       x2="50.18922"
       y2="1052.7195" />
    <linearGradient
       id="linearGradient4704">
      <stop
         style="stop-color:#505050;stop-opacity:1;"
         offset="0"
         id="stop4706" />
      <stop
         style="stop-color:#000000;stop-opacity:1;"
         offset="1"
         id="stop4708" />
    </linearGradient>
    <inkscape:path-effect
       is_visible="true"
       id="path-effect3481"
       effect="spiro" />
    <linearGradient
       inkscape:collect="always"
       xlink:href="#linearGradient4704"
       id="linearGradient7286"
       gradientUnits="userSpaceOnUse"
       x1="50.18922"
       y1="932.19568"
       x2="50.18922"
       y2="1052.7195" />
    <linearGradient
       id="linearGradient3484">
      <stop
         style="stop-color:#505050;stop-opacity:1;"
         offset="0"
         id="stop3486" />
      <stop
         style="stop-color:#000000;stop-opacity:1;"
         offset="1"
         id="stop3488" />
    </linearGradient>
    <inkscape:path-effect
       effect="spiro"
       id="path-effect3490"
       is_visible="true" />
    <linearGradient
       inkscape:collect="always"
       xlink:href="#linearGradient4704"
       id="linearGradient7288"
       gradientUnits="userSpaceOnUse"
       x1="50.18922"
       y1="932.19568"
       x2="50.18922"
       y2="1052.7195" />
    <linearGradient
       id="linearGradient3493">
      <stop
         style="stop-color:#505050;stop-opacity:1;"
         offset="0"
         id="stop3495" />
      <stop
         style="stop-color:#000000;stop-opacity:1;"
         offset="1"
         id="stop3497" />
    </linearGradient>
    <inkscape:path-effect
       effect="spiro"
       id="path-effect3499"
       is_visible="true" />
    <linearGradient
       inkscape:collect="always"
       xlink:href="#linearGradient4704-1"
       id="linearGradient5141"
       gradientUnits="userSpaceOnUse"
       gradientTransform="translate(-601.65625,1193.2559)"
       x1="55.507881"
       y1="0.14540049"
       x2="55.507881"
       y2="120.45541" />
    <linearGradient
       id="linearGradient4704-1">
      <stop
         style="stop-color:#505050;stop-opacity:1;"
         offset="0"
         id="stop4706-7" />
      <stop
         style="stop-color:#000000;stop-opacity:1;"
         offset="1"
         id="stop4708-4" />
    </linearGradient>
    <linearGradient
       inkscape:collect="always"
       xlink:href="#linearGradient4704-0"
       id="linearGradient4791"
       gradientUnits="userSpaceOnUse"
       x1="49.734631"
       y1="937.51898"
       x2="49.734631"
       y2="1057.7362" />
    <linearGradient
       id="linearGradient4704-0">
      <stop
         style="stop-color:#505050;stop-opacity:1;"
         offset="0"
         id="stop4706-6" />
      <stop
         style="stop-color:#000000;stop-opacity:1;"
         offset="1"
         id="stop4708-1" />
    </linearGradient>
    <linearGradient
       inkscape:collect="always"
       xlink:href="#linearGradient4704-0"
       id="linearGradient5618"
       gradientUnits="userSpaceOnUse"
       x1="49.734631"
       y1="937.51898"
       x2="49.734631"
       y2="1057.7362" />
    <linearGradient
       id="linearGradient4266">
      <stop
         style="stop-color:#505050;stop-opacity:1;"
         offset="0"
         id="stop4268" />
      <stop
         style="stop-color:#000000;stop-opacity:1;"
         offset="1"
         id="stop4270" />
    </linearGradient>
    <linearGradient
       inkscape:collect="always"
       xlink:href="#linearGradient4704-0"
       id="linearGradient5620"
       gradientUnits="userSpaceOnUse"
       x1="49.734631"
       y1="937.51898"
       x2="49.734631"
       y2="1057.7362" />
    <linearGradient
       id="linearGradient4273">
      <stop
         style="stop-color:#505050;stop-opacity:1;"
         offset="0"
         id="stop4275" />
      <stop
         style="stop-color:#000000;stop-opacity:1;"
         offset="1"
         id="stop4277" />
    </linearGradient>
    <linearGradient
       inkscape:collect="always"
       xlink:href="#linearGradient4704-0"
       id="linearGradient5622"
       gradientUnits="userSpaceOnUse"
       x1="49.734631"
       y1="937.51898"
       x2="49.734631"
       y2="1057.7362" />
    <linearGradient
       id="linearGradient4280">
      <stop
         style="stop-color:#505050;stop-opacity:1;"
         offset="0"
         id="stop4282" />
      <stop
         style="stop-color:#000000;stop-opacity:1;"
         offset="1"
         id="stop4284" />
    </linearGradient>
    <linearGradient
       inkscape:collect="always"
       xlink:href="#linearGradient4704-0"
       id="linearGradient5624"
       gradientUnits="userSpaceOnUse"
       x1="49.734631"
       y1="937.51898"
       x2="49.734631"
       y2="1057.7362" />
    <linearGradient
       id="linearGradient4287">
      <stop
         style="stop-color:#505050;stop-opacity:1;"
         offset="0"
         id="stop4289" />
      <stop
         style="stop-color:#000000;stop-opacity:1;"
         offset="1"
         id="stop4291" />
    </linearGradient>
    <linearGradient
       inkscape:collect="always"
       xlink:href="#linearGradient4704-0"
       id="linearGradient5626"
       gradientUnits="userSpaceOnUse"
       x1="49.734631"
       y1="937.51898"
       x2="49.734631"
       y2="1057.7362" />
    <linearGradient
       id="linearGradient4294">
      <stop
         style="stop-color:#505050;stop-opacity:1;"
         offset="0"
         id="stop4296" />
      <stop
         style="stop-color:#000000;stop-opacity:1;"
         offset="1"
         id="stop4298" />
    </linearGradient>
    <linearGradient
       inkscape:collect="always"
       xlink:href="#linearGradient4704-0"
       id="linearGradient5628"
       gradientUnits="userSpaceOnUse"
       x1="49.734631"
       y1="937.51898"
       x2="49.734631"
       y2="1057.7362" />
    <linearGradient
       id="linearGradient4301">
      <stop
         style="stop-color:#505050;stop-opacity:1;"
         offset="0"
         id="stop4303" />
      <stop
         style="stop-color:#000000;stop-opacity:1;"
         offset="1"
         id="stop4305" />
    </linearGradient>
    <linearGradient
       inkscape:collect="always"
       xlink:href="#linearGradient4704-9"
       id="linearGradient4522"
       gradientUnits="userSpaceOnUse"
       gradientTransform="translate(-601.82229,1318.5833)"
       x1="51.836906"
       y1="0.23269074"
       x2="51.836906"
       y2="120.3674" />
    <linearGradient
       id="linearGradient4704-9">
      <stop
         style="stop-color:#505050;stop-opacity:1;"
         offset="0"
         id="stop4706-3" />
      <stop
         style="stop-color:#000000;stop-opacity:1;"
         offset="1"
         id="stop4708-9" />
    </linearGradient>
    <linearGradient
       inkscape:collect="always"
       xlink:href="#linearGradient4704-02"
       id="linearGradient5876"
       gradientUnits="userSpaceOnUse"
       x1="57.982758"
       y1="-0.20815283"
       x2="57.982758"
       y2="120.03327"
       gradientTransform="translate(-771.46875,854.85872)" />
    <linearGradient
       id="linearGradient4704-02">
      <stop
         style="stop-color:#505050;stop-opacity:1;"
         offset="0"
         id="stop4706-31" />
      <stop
         style="stop-color:#000000;stop-opacity:1;"
         offset="1"
         id="stop4708-98" />
    </linearGradient>
    <linearGradient
       inkscape:collect="always"
       xlink:href="#linearGradient5409"
       id="linearGradient4832"
       x1="-606.32941"
       y1="461.12576"
       x2="-476.957"
       y2="461.12576"
       gradientUnits="userSpaceOnUse" />
    <linearGradient
       id="linearGradient5409"
       osb:paint="solid">
      <stop
         style="stop-color:#000000;stop-opacity:1;"
         offset="0"
         id="stop5411" />
    </linearGradient>
    <linearGradient
       inkscape:collect="always"
       xlink:href="#linearGradient4704-96"
       id="linearGradient6036"
       gradientUnits="userSpaceOnUse"
       x1="52.5"
       y1="-6.3316421e-008"
       x2="52.5"
       y2="120.17591"
       gradientTransform="translate(-601.125,403.44633)" />
    <linearGradient
       id="linearGradient4704-96">
      <stop
         style="stop-color:#505050;stop-opacity:1;"
         offset="0"
         id="stop4706-72" />
      <stop
         style="stop-color:#000000;stop-opacity:1;"
         offset="1"
         id="stop4708-15" />
    </linearGradient>
    <linearGradient
       y2="120.17591"
       x2="52.5"
       y1="-6.3316421e-008"
       x1="52.5"
       gradientTransform="translate(-601.125,403.44633)"
       gradientUnits="userSpaceOnUse"
       id="linearGradient4874"
       xlink:href="#linearGradient4704-96"
       inkscape:collect="always" />
    <linearGradient
       inkscape:collect="always"
       xlink:href="#linearGradient5409-4"
       id="linearGradient4832-6"
       x1="-606.32941"
       y1="461.12576"
       x2="-476.957"
       y2="461.12576"
       gradientUnits="userSpaceOnUse" />
    <linearGradient
       id="linearGradient5409-4"
       osb:paint="solid">
      <stop
         style="stop-color:#000000;stop-opacity:1;"
         offset="0"
         id="stop5411-3" />
    </linearGradient>
    <linearGradient
       inkscape:collect="always"
       xlink:href="#linearGradient4704-3"
       id="linearGradient6036-9"
       gradientUnits="userSpaceOnUse"
       x1="52.5"
       y1="-6.3316421e-008"
       x2="52.5"
       y2="120.17591"
       gradientTransform="translate(-601.125,403.44633)" />
    <linearGradient
       id="linearGradient4704-3">
      <stop
         style="stop-color:#505050;stop-opacity:1;"
         offset="0"
         id="stop4706-2" />
      <stop
         style="stop-color:#000000;stop-opacity:1;"
         offset="1"
         id="stop4708-2" />
    </linearGradient>
    <linearGradient
       inkscape:collect="always"
       xlink:href="#linearGradient4704-36"
       id="linearGradient5072"
       gradientUnits="userSpaceOnUse"
       gradientTransform="translate(-601.125,512.85108)"
       x1="57.27565"
       y1="-0.20815283"
       x2="57.27565"
       y2="120.03327" />
    <linearGradient
       id="linearGradient4704-36">
      <stop
         style="stop-color:#505050;stop-opacity:1;"
         offset="0"
         id="stop4706-8" />
      <stop
         style="stop-color:#000000;stop-opacity:1;"
         offset="1"
         id="stop4708-41" />
    </linearGradient>
    <linearGradient
       inkscape:collect="always"
       xlink:href="#linearGradient4704-7"
       id="linearGradient6883"
       gradientUnits="userSpaceOnUse"
       x1="63.5"
       y1="-6.3316477e-008"
       x2="63.5"
       y2="119.52615"
       gradientTransform="translate(-601.125,1443.9107)" />
    <linearGradient
       id="linearGradient4704-7">
      <stop
         style="stop-color:#505050;stop-opacity:1;"
         offset="0"
         id="stop4706-5" />
      <stop
         style="stop-color:#000000;stop-opacity:1;"
         offset="1"
         id="stop4708-0" />
    </linearGradient>
    <linearGradient
       inkscape:collect="always"
       xlink:href="#linearGradient4704-5"
       id="linearGradient6638"
       gradientUnits="userSpaceOnUse"
       x1="57.629204"
       y1="0.14540049"
       x2="57.629204"
       y2="120.0881"
       gradientTransform="translate(-601.125,627.25586)" />
    <linearGradient
       id="linearGradient4704-5">
      <stop
         style="stop-color:#505050;stop-opacity:1;"
         offset="0"
         id="stop4706-4" />
      <stop
         style="stop-color:#000000;stop-opacity:1;"
         offset="1"
         id="stop4708-5" />
    </linearGradient>
    <linearGradient
       inkscape:collect="always"
       xlink:href="#linearGradient5409-7"
       id="linearGradient5599"
       x1="-606.32941"
       y1="1623.3613"
       x2="-476.957"
       y2="1623.3613"
       gradientUnits="userSpaceOnUse" />
    <linearGradient
       id="linearGradient5409-7"
       osb:paint="solid">
      <stop
         style="stop-color:#000000;stop-opacity:1;"
         offset="0"
         id="stop5411-37" />
    </linearGradient>
    <linearGradient
       inkscape:collect="always"
       xlink:href="#linearGradient4704-8"
       id="linearGradient6953"
       gradientUnits="userSpaceOnUse"
       x1="58"
       y1="-6.3316477e-008"
       x2="58"
       y2="119.76749"
       gradientTransform="translate(-601.125,1562.3622)" />
    <linearGradient
       id="linearGradient4704-8">
      <stop
         style="stop-color:#505050;stop-opacity:1;"
         offset="0"
         id="stop4706-61" />
      <stop
         style="stop-color:#000000;stop-opacity:1;"
         offset="1"
         id="stop4708-23" />
    </linearGradient>
    <linearGradient
       y2="119.76749"
       x2="58"
       y1="-6.3316477e-008"
       x1="58"
       gradientTransform="translate(-601.125,1562.3622)"
       gradientUnits="userSpaceOnUse"
       id="linearGradient5623"
       xlink:href="#linearGradient4704-8"
       inkscape:collect="always" />
    <linearGradient
       inkscape:collect="always"
       xlink:href="#linearGradient5409-0"
       id="linearGradient5599-4"
       x1="-606.32941"
       y1="1623.3613"
       x2="-476.957"
       y2="1623.3613"
       gradientUnits="userSpaceOnUse" />
    <linearGradient
       id="linearGradient5409-0"
       osb:paint="solid">
      <stop
         style="stop-color:#000000;stop-opacity:1;"
         offset="0"
         id="stop5411-32" />
    </linearGradient>
    <filter
       inkscape:collect="always"
       id="filter4435-3"
       x="-0.10462177"
       width="1.2092435"
       y="-0.11595451"
       height="1.231909"
       color-interpolation-filters="sRGB">
      <feGaussianBlur
         inkscape:collect="always"
         stdDeviation="4.6110333"
         id="feGaussianBlur4437-6" />
    </filter>
    <linearGradient
       inkscape:collect="always"
       xlink:href="#linearGradient4704-2"
       id="linearGradient6953-3"
       gradientUnits="userSpaceOnUse"
       x1="58"
       y1="-6.3316477e-008"
       x2="58"
       y2="119.76749"
       gradientTransform="translate(-601.125,1562.3622)" />
    <linearGradient
       id="linearGradient4704-2">
      <stop
         style="stop-color:#505050;stop-opacity:1;"
         offset="0"
         id="stop4706-71" />
      <stop
         style="stop-color:#000000;stop-opacity:1;"
         offset="1"
         id="stop4708-01" />
    </linearGradient>
    <filter
       inkscape:collect="always"
       id="filter4499"
       x="-0.10489554"
       width="1.2097911"
       y="-0.12938526"
       height="1.2587705"
       color-interpolation-filters="sRGB">
      <feGaussianBlur
         inkscape:collect="always"
         stdDeviation="4.6110333"
         id="feGaussianBlur4501" />
    </filter>
    <linearGradient
       inkscape:collect="always"
       xlink:href="#linearGradient4704-12"
       id="linearGradient5844"
       gradientUnits="userSpaceOnUse"
       gradientTransform="translate(-446.89149,-81.250209)"
       x1="62"
       y1="932.36218"
       x2="62"
       y2="1051.379" />
    <linearGradient
       id="linearGradient4704-12">
      <stop
         style="stop-color:#505050;stop-opacity:1;"
         offset="0"
         id="stop4706-57" />
      <stop
         style="stop-color:#000000;stop-opacity:1;"
         offset="1"
         id="stop4708-6" />
    </linearGradient>
    <linearGradient
       inkscape:collect="always"
       xlink:href="#linearGradient4704-12"
       id="linearGradient6012"
       gradientUnits="userSpaceOnUse"
       gradientTransform="translate(-446.89149,-81.250209)"
       x1="62"
       y1="932.36218"
       x2="62"
       y2="1051.379" />
  </defs>
  <sodipodi:namedview
     id="base"
     pagecolor="#ffffff"
     bordercolor="#666666"
     borderopacity="1.0"
     inkscape:pageopacity="0.0"
     inkscape:pageshadow="2"
     inkscape:zoom="1"
     inkscape:cx="-88.92857"
     inkscape:cy="10"
     inkscape:document-units="px"
     inkscape:current-layer="layer1"
     showgrid="false"
     inkscape:window-width="876"
     inkscape:window-height="714"
     inkscape:window-x="1874"
     inkscape:window-y="413"
     inkscape:window-maximized="0" />
  <metadata
     id="metadata3518">
    <rdf:RDF>
      <cc:Work
         rdf:about="">
        <dc:format>image/svg+xml</dc:format>
        <dc:type
           rdf:resource="http://purl.org/dc/dcmitype/StillImage" />
        <dc:title></dc:title>
        <dc:creator>
          <cc:Agent>
            <dc:title>MerlinTheRed</dc:title>
          </cc:Agent>
        </dc:creator>
        <dc:source>http://merlinthered.deviantart.com/art/plain-weather-icons-157162192</dc:source>
        <cc:license
           rdf:resource="http://creativecommons.org/licenses/by-nc-sa/3.0/" />
      </cc:Work>
      <cc:License
         rdf:about="http://creativecommons.org/licenses/by-nc-sa/3.0/">
        <cc:permits
           rdf:resource="http://creativecommons.org/ns#Reproduction" />
        <cc:permits
           rdf:resource="http://creativecommons.org/ns#Distribution" />
        <cc:requires
           rdf:resource="http://creativecommons.org/ns#Notice" />
        <cc:requires
           rdf:resource="http://creativecommons.org/ns#Attribution" />
        <cc:prohibits
           rdf:resource="http://creativecommons.org/ns#CommercialUse" />
        <cc:permits
           rdf:resource="http://creativecommons.org/ns#DerivativeWorks" />
        <cc:requires
           rdf:resource="http://creativecommons.org/ns#ShareAlike" />
      </cc:License>
    </rdf:RDF>
  </metadata>
  <g
     inkscape:label="Ebene 1"
     inkscape:groupmode="layer"
     id="layer1"
     transform="translate(0,-924.36218)">
    <g
       id="g4677"
       transform="matrix(1.0661115,0,0,1.0661115,476.46947,14.066772)">
      <path
         id="path3277"
         d="m -394.73524,871.11198 c -1.19529,9.89838 -6.90322,12.22848 -14.71875,6.0625 2.68365,9.60233 -1.70103,13.9245 -11.28125,11.21875 6.15403,7.84441 3.76142,13.48985 -6.125,14.65625 8.6875,4.89225 8.6562,11.04519 -0.0312,15.90625 3.68824,0.44538 6.3363,1.51974 7.875,3.09375 0.30711,-0.0246 0.5535,-0.0387 0.875,-0.0625 5.28891,-0.39215 12.42875,-0.625 20.3125,-0.625 0.75202,0 1.20002,0.0583 1.9375,0.0625 0.32923,-1.65602 1.24558,-2.83045 1.84375,-3.28125 0.71282,-0.53721 1.16691,-0.69588 1.5625,-0.84375 0.79119,-0.29574 1.36647,-0.41117 2.03125,-0.53125 1.32956,-0.24017 2.90101,-0.41674 4.8125,-0.5625 3.82298,-0.29152 8.91682,-0.4375 14.5625,-0.4375 5.64568,0 10.76357,0.14606 14.59375,0.4375 1.91509,0.14572 3.48102,0.32268 4.8125,0.5625 0.60683,0.1093 1.15557,0.22758 1.84375,0.46875 -5.61581,-4.50871 -4.63221,-9.7331 2.9375,-13.96875 -9.89855,-1.19527 -12.22845,-6.90312 -6.0625,-14.71875 -9.60248,2.68373 -13.92444,-1.70094 -11.21875,-11.28125 -7.84451,6.15415 -13.48975,3.76148 -14.65625,-6.125 -4.89224,8.68748 -11.04526,8.6562 -15.90625,-0.0312 z m 47.625,47.96875 c 0.0264,0.0331 0.0363,0.0905 0.0625,0.125 0.0444,-0.005 0.0802,-0.026 0.125,-0.0312 -0.0632,-0.0356 -0.12526,-0.058 -0.1875,-0.0937 z m -23.96875,1.6875 c -11.08556,0 -20.0625,0.68315 -20.0625,1.53125 0,0.848 8.97694,1.53125 20.0625,1.53125 11.08556,0 20.09375,-0.68325 20.09375,-1.53125 0,-0.8481 -9.00819,-1.53125 -20.09375,-1.53125 z m -26.75,5.59375 c -15.56758,0 -28.1875,0.93192 -28.1875,2.09372 0,1.1617 12.61992,2.0938 28.1875,2.0938 15.56758,0 28.21875,-0.9321 28.21875,-2.0938 0,-1.1618 -12.65117,-2.09372 -28.21875,-2.09372 z m 27.6875,6.21872 c -19.88312,0 -36,1.5182 -36,3.4063 0,1.888 16.11688,3.4062 36,3.4062 19.88312,0 36,-1.5182 36,-3.4062 0,-1.8881 -16.11688,-3.4063 -36,-3.4063 z m -27.9375,9.6875 c -22.95791,0 -41.5625,1.4363 -41.5625,3.25 0,1.8137 18.60459,3.3125 41.5625,3.3125 22.95791,0 41.59375,-1.4988 41.59375,-3.3125 0,-1.8137 -18.63584,-3.25 -41.59375,-3.25 z m 24.21875,9.3438 c -15.32633,0 -27.75,1.1094 -27.75,2.5 0,1.3905 12.42367,2.5312 27.75,2.5312 15.32634,0 27.75,-1.1407 27.75,-2.5312 0,-1.3906 -12.42366,-2.5 -27.75,-2.5 z"
         style="opacity:0.6;fill:#000000;fill-opacity:1;fill-rule:nonzero;stroke:none;filter:url(#filter4499)"
         inkscape:connector-curvature="0" />
      <path
         style="fill:url(#linearGradient6012);fill-opacity:1;fill-rule:nonzero;stroke:none"
         d="m -394.73524,871.11198 c -1.19529,9.89838 -6.90322,12.22848 -14.71875,6.0625 2.68365,9.60233 -1.70103,13.9245 -11.28125,11.21875 6.15403,7.84441 3.76142,13.48985 -6.125,14.65625 8.6875,4.89225 8.6562,11.04519 -0.0312,15.90625 3.68824,0.44538 6.3363,1.51974 7.875,3.09375 0.30711,-0.0246 0.5535,-0.0387 0.875,-0.0625 5.28891,-0.39215 12.42875,-0.625 20.3125,-0.625 0.75202,0 1.20002,0.0583 1.9375,0.0625 0.32923,-1.65602 1.24558,-2.83045 1.84375,-3.28125 0.71282,-0.53721 1.16691,-0.69588 1.5625,-0.84375 0.79119,-0.29574 1.36647,-0.41117 2.03125,-0.53125 1.32956,-0.24017 2.90101,-0.41674 4.8125,-0.5625 3.82298,-0.29152 8.91682,-0.4375 14.5625,-0.4375 5.64568,0 10.76357,0.14606 14.59375,0.4375 1.91509,0.14572 3.48102,0.32268 4.8125,0.5625 0.60683,0.1093 1.15557,0.22758 1.84375,0.46875 -5.61581,-4.50871 -4.63221,-9.7331 2.9375,-13.96875 -9.89855,-1.19527 -12.22845,-6.90312 -6.0625,-14.71875 -9.60248,2.68373 -13.92444,-1.70094 -11.21875,-11.28125 -7.84451,6.15415 -13.48975,3.76148 -14.65625,-6.125 -4.89224,8.68748 -11.04526,8.6562 -15.90625,-0.0312 z m 47.625,47.96875 c 0.0264,0.0331 0.0363,0.0905 0.0625,0.125 0.0444,-0.005 0.0802,-0.026 0.125,-0.0312 -0.0632,-0.0356 -0.12526,-0.058 -0.1875,-0.0937 z m -23.96875,1.6875 c -11.08556,0 -20.0625,0.68315 -20.0625,1.53125 0,0.848 8.97694,1.53125 20.0625,1.53125 11.08556,0 20.09375,-0.68325 20.09375,-1.53125 0,-0.8481 -9.00819,-1.53125 -20.09375,-1.53125 z m -26.75,5.59375 c -15.56758,0 -28.1875,0.93192 -28.1875,2.09372 0,1.1617 12.61992,2.0938 28.1875,2.0938 15.56758,0 28.21875,-0.9321 28.21875,-2.0938 0,-1.1618 -12.65117,-2.09372 -28.21875,-2.09372 z m 27.6875,6.21872 c -19.88312,0 -36,1.5182 -36,3.4063 0,1.888 16.11688,3.4062 36,3.4062 19.88312,0 36,-1.5182 36,-3.4062 0,-1.8881 -16.11688,-3.4063 -36,-3.4063 z m -27.9375,9.6875 c -22.95791,0 -41.5625,1.4363 -41.5625,3.25 0,1.8137 18.60459,3.3125 41.5625,3.3125 22.95791,0 41.59375,-1.4988 41.59375,-3.3125 0,-1.8137 -18.63584,-3.25 -41.59375,-3.25 z m 24.21875,9.3438 c -15.32633,0 -27.75,1.1094 -27.75,2.5 0,1.3905 12.42367,2.5312 27.75,2.5312 15.32634,0 27.75,-1.1407 27.75,-2.5312 0,-1.3906 -12.42366,-2.5 -27.75,-2.5 z"
         id="path3203"
         inkscape:connector-curvature="0" />
    </g>
  </g>
</svg>
