<?xml version="1.0" encoding="UTF-8" standalone="no"?>
<!-- Created with Inkscape (http://www.inkscape.org/) -->

<svg
   xmlns:osb="http://www.openswatchbook.org/uri/2009/osb"
   xmlns:dc="http://purl.org/dc/elements/1.1/"
   xmlns:cc="http://creativecommons.org/ns#"
   xmlns:rdf="http://www.w3.org/1999/02/22-rdf-syntax-ns#"
   xmlns:svg="http://www.w3.org/2000/svg"
   xmlns="http://www.w3.org/2000/svg"
   xmlns:xlink="http://www.w3.org/1999/xlink"
   xmlns:sodipodi="http://sodipodi.sourceforge.net/DTD/sodipodi-0.dtd"
   xmlns:inkscape="http://www.inkscape.org/namespaces/inkscape"
   width="128"
   height="128"
   id="svg3513"
   version="1.1"
   inkscape:version="0.48.1 "
   sodipodi:docname="07.svg"
   inkscape:export-filename="E:\Bilder\icons&amp;logos\weather\plain_weather\dark\png\01.png"
   inkscape:export-xdpi="90"
   inkscape:export-ydpi="90">
  <defs
     id="defs3515">
    <inkscape:path-effect
       is_visible="true"
       id="path-effect7110"
       effect="spiro" />
    <inkscape:path-effect
       effect="spiro"
       id="path-effect7107"
       is_visible="true" />
    <inkscape:path-effect
       effect="spiro"
       id="path-effect7104"
       is_visible="true" />
    <linearGradient
       inkscape:collect="always"
       xlink:href="#linearGradient4704"
       id="linearGradient7284"
       gradientUnits="userSpaceOnUse"
       x1="50.18922"
       y1="932.19568"
       x2="50.18922"
       y2="1052.7195" />
    <linearGradient
       id="linearGradient4704">
      <stop
         style="stop-color:#505050;stop-opacity:1;"
         offset="0"
         id="stop4706" />
      <stop
         style="stop-color:#000000;stop-opacity:1;"
         offset="1"
         id="stop4708" />
    </linearGradient>
    <inkscape:path-effect
       is_visible="true"
       id="path-effect3481"
       effect="spiro" />
    <linearGradient
       inkscape:collect="always"
       xlink:href="#linearGradient4704"
       id="linearGradient7286"
       gradientUnits="userSpaceOnUse"
       x1="50.18922"
       y1="932.19568"
       x2="50.18922"
       y2="1052.7195" />
    <linearGradient
       id="linearGradient3484">
      <stop
         style="stop-color:#505050;stop-opacity:1;"
         offset="0"
         id="stop3486" />
      <stop
         style="stop-color:#000000;stop-opacity:1;"
         offset="1"
         id="stop3488" />
    </linearGradient>
    <inkscape:path-effect
       effect="spiro"
       id="path-effect3490"
       is_visible="true" />
    <linearGradient
       inkscape:collect="always"
       xlink:href="#linearGradient4704"
       id="linearGradient7288"
       gradientUnits="userSpaceOnUse"
       x1="50.18922"
       y1="932.19568"
       x2="50.18922"
       y2="1052.7195" />
    <linearGradient
       id="linearGradient3493">
      <stop
         style="stop-color:#505050;stop-opacity:1;"
         offset="0"
         id="stop3495" />
      <stop
         style="stop-color:#000000;stop-opacity:1;"
         offset="1"
         id="stop3497" />
    </linearGradient>
    <inkscape:path-effect
       effect="spiro"
       id="path-effect3499"
       is_visible="true" />
    <linearGradient
       inkscape:collect="always"
       xlink:href="#linearGradient4704-8"
       id="linearGradient3770"
       gradientUnits="userSpaceOnUse"
       x1="-379.42209"
       y1="1094.3872"
       x2="-379.42209"
       y2="1214.6141" />
    <linearGradient
       id="linearGradient4704-8">
      <stop
         style="stop-color:#505050;stop-opacity:1;"
         offset="0"
         id="stop4706-7" />
      <stop
         style="stop-color:#000000;stop-opacity:1;"
         offset="1"
         id="stop4708-5" />
    </linearGradient>
    <linearGradient
       inkscape:collect="always"
       xlink:href="#linearGradient4704-8"
       id="linearGradient3704"
       gradientUnits="userSpaceOnUse"
       x1="-379.42209"
       y1="1094.3872"
       x2="-379.42209"
       y2="1214.6141" />
    <linearGradient
       id="linearGradient3815">
      <stop
         style="stop-color:#505050;stop-opacity:1;"
         offset="0"
         id="stop3817" />
      <stop
         style="stop-color:#000000;stop-opacity:1;"
         offset="1"
         id="stop3819" />
    </linearGradient>
    <linearGradient
       inkscape:collect="always"
       xlink:href="#linearGradient4704-8"
       id="linearGradient3706"
       gradientUnits="userSpaceOnUse"
       x1="-379.42209"
       y1="1094.3872"
       x2="-379.42209"
       y2="1214.6141" />
    <linearGradient
       id="linearGradient3822">
      <stop
         style="stop-color:#505050;stop-opacity:1;"
         offset="0"
         id="stop3824" />
      <stop
         style="stop-color:#000000;stop-opacity:1;"
         offset="1"
         id="stop3826" />
    </linearGradient>
    <linearGradient
       inkscape:collect="always"
       xlink:href="#linearGradient4704-8"
       id="linearGradient3708"
       gradientUnits="userSpaceOnUse"
       x1="-379.42209"
       y1="1094.3872"
       x2="-379.42209"
       y2="1214.6141" />
    <linearGradient
       id="linearGradient3829">
      <stop
         style="stop-color:#505050;stop-opacity:1;"
         offset="0"
         id="stop3831" />
      <stop
         style="stop-color:#000000;stop-opacity:1;"
         offset="1"
         id="stop3833" />
    </linearGradient>
    <linearGradient
       inkscape:collect="always"
       xlink:href="#linearGradient4704-8"
       id="linearGradient3710"
       gradientUnits="userSpaceOnUse"
       x1="-379.42209"
       y1="1094.3872"
       x2="-379.42209"
       y2="1214.6141" />
    <linearGradient
       id="linearGradient3836">
      <stop
         style="stop-color:#505050;stop-opacity:1;"
         offset="0"
         id="stop3838" />
      <stop
         style="stop-color:#000000;stop-opacity:1;"
         offset="1"
         id="stop3840" />
    </linearGradient>
    <linearGradient
       inkscape:collect="always"
       xlink:href="#linearGradient4704-8"
       id="linearGradient3712"
       gradientUnits="userSpaceOnUse"
       x1="-379.42209"
       y1="1094.3872"
       x2="-379.42209"
       y2="1214.6141" />
    <linearGradient
       id="linearGradient3843">
      <stop
         style="stop-color:#505050;stop-opacity:1;"
         offset="0"
         id="stop3845" />
      <stop
         style="stop-color:#000000;stop-opacity:1;"
         offset="1"
         id="stop3847" />
    </linearGradient>
    <linearGradient
       inkscape:collect="always"
       xlink:href="#linearGradient4704-8"
       id="linearGradient3714"
       gradientUnits="userSpaceOnUse"
       x1="-379.42209"
       y1="1094.3872"
       x2="-379.42209"
       y2="1214.6141" />
    <linearGradient
       id="linearGradient3850">
      <stop
         style="stop-color:#505050;stop-opacity:1;"
         offset="0"
         id="stop3852" />
      <stop
         style="stop-color:#000000;stop-opacity:1;"
         offset="1"
         id="stop3854" />
    </linearGradient>
    <linearGradient
       inkscape:collect="always"
       xlink:href="#linearGradient4704-8"
       id="linearGradient3716"
       gradientUnits="userSpaceOnUse"
       x1="-379.42209"
       y1="1094.3872"
       x2="-379.42209"
       y2="1214.6141" />
    <linearGradient
       id="linearGradient3857">
      <stop
         style="stop-color:#505050;stop-opacity:1;"
         offset="0"
         id="stop3859" />
      <stop
         style="stop-color:#000000;stop-opacity:1;"
         offset="1"
         id="stop3861" />
    </linearGradient>
    <linearGradient
       inkscape:collect="always"
       xlink:href="#linearGradient4704-8"
       id="linearGradient3718"
       gradientUnits="userSpaceOnUse"
       x1="-379.42209"
       y1="1094.3872"
       x2="-379.42209"
       y2="1214.6141" />
    <linearGradient
       id="linearGradient3864">
      <stop
         style="stop-color:#505050;stop-opacity:1;"
         offset="0"
         id="stop3866" />
      <stop
         style="stop-color:#000000;stop-opacity:1;"
         offset="1"
         id="stop3868" />
    </linearGradient>
    <linearGradient
       inkscape:collect="always"
       xlink:href="#linearGradient4704-8"
       id="linearGradient3720"
       gradientUnits="userSpaceOnUse"
       x1="-379.42209"
       y1="1094.3872"
       x2="-379.42209"
       y2="1214.6141" />
    <linearGradient
       id="linearGradient3871">
      <stop
         style="stop-color:#505050;stop-opacity:1;"
         offset="0"
         id="stop3873" />
      <stop
         style="stop-color:#000000;stop-opacity:1;"
         offset="1"
         id="stop3875" />
    </linearGradient>
    <linearGradient
       inkscape:collect="always"
       xlink:href="#linearGradient4704-0"
       id="linearGradient3796"
       gradientUnits="userSpaceOnUse"
       gradientTransform="translate(-771.90661,965.79724)"
       x1="57"
       y1="-6.3316421e-008"
       x2="57"
       y2="120.02604" />
    <linearGradient
       id="linearGradient4704-0">
      <stop
         style="stop-color:#505050;stop-opacity:1;"
         offset="0"
         id="stop4706-3" />
      <stop
         style="stop-color:#000000;stop-opacity:1;"
         offset="1"
         id="stop4708-2" />
    </linearGradient>
    <linearGradient
       inkscape:collect="always"
       xlink:href="#linearGradient4704-4"
       id="linearGradient4378"
       gradientUnits="userSpaceOnUse"
       gradientTransform="translate(-601.99677,-189.82665)"
       x1="56.568542"
       y1="932.50757"
       x2="56.568542"
       y2="1052.8176" />
    <linearGradient
       id="linearGradient4704-4">
      <stop
         style="stop-color:#505050;stop-opacity:1;"
         offset="0"
         id="stop4706-1" />
      <stop
         style="stop-color:#000000;stop-opacity:1;"
         offset="1"
         id="stop4708-8" />
    </linearGradient>
    <linearGradient
       inkscape:collect="always"
       xlink:href="#linearGradient5409"
       id="linearGradient5449"
       x1="-588.79816"
       y1="903.79285"
       x2="-459.42578"
       y2="903.79285"
       gradientUnits="userSpaceOnUse" />
    <linearGradient
       id="linearGradient5409"
       osb:paint="solid">
      <stop
         style="stop-color:#000000;stop-opacity:1;"
         offset="0"
         id="stop5411" />
    </linearGradient>
    <filter
       inkscape:collect="always"
       id="filter4511"
       x="-0.10462177"
       width="1.2092435"
       y="-0.1268263"
       height="1.2536526"
       color-interpolation-filters="sRGB">
      <feGaussianBlur
         inkscape:collect="always"
         stdDeviation="4.6110333"
         id="feGaussianBlur4513" />
    </filter>
    <linearGradient
       inkscape:collect="always"
       xlink:href="#linearGradient5409"
       id="linearGradient5466"
       x1="-588.79816"
       y1="903.79285"
       x2="-459.42578"
       y2="903.79285"
       gradientUnits="userSpaceOnUse" />
    <linearGradient
       id="linearGradient5468"
       osb:paint="solid">
      <stop
         style="stop-color:#000000;stop-opacity:1;"
         offset="0"
         id="stop5470" />
    </linearGradient>
    <linearGradient
       inkscape:collect="always"
       xlink:href="#linearGradient5409"
       id="linearGradient5472"
       x1="-588.79816"
       y1="903.79285"
       x2="-459.42578"
       y2="903.79285"
       gradientUnits="userSpaceOnUse" />
    <linearGradient
       id="linearGradient5474"
       osb:paint="solid">
      <stop
         style="stop-color:#000000;stop-opacity:1;"
         offset="0"
         id="stop5476" />
    </linearGradient>
    <linearGradient
       inkscape:collect="always"
       xlink:href="#linearGradient5409"
       id="linearGradient5478"
       x1="-588.79816"
       y1="903.79285"
       x2="-459.42578"
       y2="903.79285"
       gradientUnits="userSpaceOnUse" />
    <linearGradient
       id="linearGradient5480"
       osb:paint="solid">
      <stop
         style="stop-color:#000000;stop-opacity:1;"
         offset="0"
         id="stop5482" />
    </linearGradient>
    <linearGradient
       inkscape:collect="always"
       xlink:href="#linearGradient5409"
       id="linearGradient5484"
       x1="-588.79816"
       y1="903.79285"
       x2="-459.42578"
       y2="903.79285"
       gradientUnits="userSpaceOnUse" />
    <linearGradient
       id="linearGradient5486"
       osb:paint="solid">
      <stop
         style="stop-color:#000000;stop-opacity:1;"
         offset="0"
         id="stop5488" />
    </linearGradient>
    <linearGradient
       inkscape:collect="always"
       xlink:href="#linearGradient5409"
       id="linearGradient5490"
       x1="-588.79816"
       y1="903.79285"
       x2="-459.42578"
       y2="903.79285"
       gradientUnits="userSpaceOnUse" />
    <linearGradient
       id="linearGradient5492"
       osb:paint="solid">
      <stop
         style="stop-color:#000000;stop-opacity:1;"
         offset="0"
         id="stop5494" />
    </linearGradient>
    <linearGradient
       inkscape:collect="always"
       xlink:href="#linearGradient5409"
       id="linearGradient5496"
       x1="-588.79816"
       y1="903.79285"
       x2="-459.42578"
       y2="903.79285"
       gradientUnits="userSpaceOnUse" />
    <linearGradient
       id="linearGradient5498"
       osb:paint="solid">
      <stop
         style="stop-color:#000000;stop-opacity:1;"
         offset="0"
         id="stop5500" />
    </linearGradient>
    <linearGradient
       inkscape:collect="always"
       xlink:href="#linearGradient5409"
       id="linearGradient5502"
       x1="-588.79816"
       y1="903.79285"
       x2="-459.42578"
       y2="903.79285"
       gradientUnits="userSpaceOnUse" />
    <linearGradient
       id="linearGradient5504"
       osb:paint="solid">
      <stop
         style="stop-color:#000000;stop-opacity:1;"
         offset="0"
         id="stop5506" />
    </linearGradient>
    <linearGradient
       inkscape:collect="always"
       xlink:href="#linearGradient5409"
       id="linearGradient5508"
       x1="-588.79816"
       y1="903.79285"
       x2="-459.42578"
       y2="903.79285"
       gradientUnits="userSpaceOnUse" />
    <linearGradient
       id="linearGradient5510"
       osb:paint="solid">
      <stop
         style="stop-color:#000000;stop-opacity:1;"
         offset="0"
         id="stop5512" />
    </linearGradient>
    <linearGradient
       inkscape:collect="always"
       xlink:href="#linearGradient5409"
       id="linearGradient5514"
       x1="-588.79816"
       y1="903.79285"
       x2="-459.42578"
       y2="903.79285"
       gradientUnits="userSpaceOnUse" />
    <linearGradient
       id="linearGradient5516"
       osb:paint="solid">
      <stop
         style="stop-color:#000000;stop-opacity:1;"
         offset="0"
         id="stop5518" />
    </linearGradient>
    <linearGradient
       inkscape:collect="always"
       xlink:href="#linearGradient5409"
       id="linearGradient5520"
       x1="-588.79816"
       y1="903.79285"
       x2="-459.42578"
       y2="903.79285"
       gradientUnits="userSpaceOnUse" />
    <linearGradient
       id="linearGradient5522"
       osb:paint="solid">
      <stop
         style="stop-color:#000000;stop-opacity:1;"
         offset="0"
         id="stop5524" />
    </linearGradient>
    <linearGradient
       inkscape:collect="always"
       xlink:href="#linearGradient5409"
       id="linearGradient5526"
       x1="-588.79816"
       y1="903.79285"
       x2="-459.42578"
       y2="903.79285"
       gradientUnits="userSpaceOnUse" />
    <linearGradient
       id="linearGradient5528"
       osb:paint="solid">
      <stop
         style="stop-color:#000000;stop-opacity:1;"
         offset="0"
         id="stop5530" />
    </linearGradient>
    <linearGradient
       inkscape:collect="always"
       xlink:href="#linearGradient4704-88"
       id="linearGradient4582"
       gradientUnits="userSpaceOnUse"
       x1="-529.96552"
       y1="847.03967"
       x2="-529.96552"
       y2="967.45563" />
    <linearGradient
       id="linearGradient4704-88">
      <stop
         style="stop-color:#505050;stop-opacity:1;"
         offset="0"
         id="stop4706-8" />
      <stop
         style="stop-color:#000000;stop-opacity:1;"
         offset="1"
         id="stop4708-4" />
    </linearGradient>
    <linearGradient
       inkscape:collect="always"
       xlink:href="#linearGradient4704-88"
       id="linearGradient4560"
       gradientUnits="userSpaceOnUse"
       x1="-529.96552"
       y1="847.03967"
       x2="-529.96552"
       y2="967.45563" />
    <linearGradient
       id="linearGradient5537">
      <stop
         style="stop-color:#505050;stop-opacity:1;"
         offset="0"
         id="stop5539" />
      <stop
         style="stop-color:#000000;stop-opacity:1;"
         offset="1"
         id="stop5541" />
    </linearGradient>
    <linearGradient
       inkscape:collect="always"
       xlink:href="#linearGradient4704-88"
       id="linearGradient4562"
       gradientUnits="userSpaceOnUse"
       x1="-529.96552"
       y1="847.03967"
       x2="-529.96552"
       y2="967.45563" />
    <linearGradient
       id="linearGradient5544">
      <stop
         style="stop-color:#505050;stop-opacity:1;"
         offset="0"
         id="stop5546" />
      <stop
         style="stop-color:#000000;stop-opacity:1;"
         offset="1"
         id="stop5548" />
    </linearGradient>
    <linearGradient
       inkscape:collect="always"
       xlink:href="#linearGradient4704-88"
       id="linearGradient4564"
       gradientUnits="userSpaceOnUse"
       x1="-529.96552"
       y1="847.03967"
       x2="-529.96552"
       y2="967.45563" />
    <linearGradient
       id="linearGradient5551">
      <stop
         style="stop-color:#505050;stop-opacity:1;"
         offset="0"
         id="stop5553" />
      <stop
         style="stop-color:#000000;stop-opacity:1;"
         offset="1"
         id="stop5555" />
    </linearGradient>
    <linearGradient
       inkscape:collect="always"
       xlink:href="#linearGradient4704-88"
       id="linearGradient4566"
       gradientUnits="userSpaceOnUse"
       x1="-529.96552"
       y1="847.03967"
       x2="-529.96552"
       y2="967.45563" />
    <linearGradient
       id="linearGradient5558">
      <stop
         style="stop-color:#505050;stop-opacity:1;"
         offset="0"
         id="stop5560" />
      <stop
         style="stop-color:#000000;stop-opacity:1;"
         offset="1"
         id="stop5562" />
    </linearGradient>
    <linearGradient
       inkscape:collect="always"
       xlink:href="#linearGradient4704-88"
       id="linearGradient4568"
       gradientUnits="userSpaceOnUse"
       x1="-529.96552"
       y1="847.03967"
       x2="-529.96552"
       y2="967.45563" />
    <linearGradient
       id="linearGradient5565">
      <stop
         style="stop-color:#505050;stop-opacity:1;"
         offset="0"
         id="stop5567" />
      <stop
         style="stop-color:#000000;stop-opacity:1;"
         offset="1"
         id="stop5569" />
    </linearGradient>
    <linearGradient
       inkscape:collect="always"
       xlink:href="#linearGradient4704-88"
       id="linearGradient4570"
       gradientUnits="userSpaceOnUse"
       x1="-529.96552"
       y1="847.03967"
       x2="-529.96552"
       y2="967.45563" />
    <linearGradient
       id="linearGradient5572">
      <stop
         style="stop-color:#505050;stop-opacity:1;"
         offset="0"
         id="stop5574" />
      <stop
         style="stop-color:#000000;stop-opacity:1;"
         offset="1"
         id="stop5576" />
    </linearGradient>
    <linearGradient
       inkscape:collect="always"
       xlink:href="#linearGradient4704-88"
       id="linearGradient4572"
       gradientUnits="userSpaceOnUse"
       x1="-529.96552"
       y1="847.03967"
       x2="-529.96552"
       y2="967.45563" />
    <linearGradient
       id="linearGradient5579">
      <stop
         style="stop-color:#505050;stop-opacity:1;"
         offset="0"
         id="stop5581" />
      <stop
         style="stop-color:#000000;stop-opacity:1;"
         offset="1"
         id="stop5583" />
    </linearGradient>
    <linearGradient
       inkscape:collect="always"
       xlink:href="#linearGradient4704-88"
       id="linearGradient4574"
       gradientUnits="userSpaceOnUse"
       x1="-529.96552"
       y1="847.03967"
       x2="-529.96552"
       y2="967.45563" />
    <linearGradient
       id="linearGradient5586">
      <stop
         style="stop-color:#505050;stop-opacity:1;"
         offset="0"
         id="stop5588" />
      <stop
         style="stop-color:#000000;stop-opacity:1;"
         offset="1"
         id="stop5590" />
    </linearGradient>
    <linearGradient
       inkscape:collect="always"
       xlink:href="#linearGradient4704-88"
       id="linearGradient4576"
       gradientUnits="userSpaceOnUse"
       x1="-529.96552"
       y1="847.03967"
       x2="-529.96552"
       y2="967.45563" />
    <linearGradient
       id="linearGradient5593">
      <stop
         style="stop-color:#505050;stop-opacity:1;"
         offset="0"
         id="stop5595" />
      <stop
         style="stop-color:#000000;stop-opacity:1;"
         offset="1"
         id="stop5597" />
    </linearGradient>
    <linearGradient
       inkscape:collect="always"
       xlink:href="#linearGradient4704-88"
       id="linearGradient4578"
       gradientUnits="userSpaceOnUse"
       x1="-529.96552"
       y1="847.03967"
       x2="-529.96552"
       y2="967.45563" />
    <linearGradient
       id="linearGradient5600">
      <stop
         style="stop-color:#505050;stop-opacity:1;"
         offset="0"
         id="stop5602" />
      <stop
         style="stop-color:#000000;stop-opacity:1;"
         offset="1"
         id="stop5604" />
    </linearGradient>
    <linearGradient
       inkscape:collect="always"
       xlink:href="#linearGradient4704-88"
       id="linearGradient4580"
       gradientUnits="userSpaceOnUse"
       x1="-529.96552"
       y1="847.03967"
       x2="-529.96552"
       y2="967.45563" />
    <linearGradient
       id="linearGradient5607">
      <stop
         style="stop-color:#505050;stop-opacity:1;"
         offset="0"
         id="stop5609" />
      <stop
         style="stop-color:#000000;stop-opacity:1;"
         offset="1"
         id="stop5611" />
    </linearGradient>
    <linearGradient
       y2="903.79285"
       x2="-459.42578"
       y1="903.79285"
       x1="-588.79816"
       gradientUnits="userSpaceOnUse"
       id="linearGradient5640"
       xlink:href="#linearGradient5409"
       inkscape:collect="always" />
    <linearGradient
       y2="903.79285"
       x2="-459.42578"
       y1="903.79285"
       x1="-588.79816"
       gradientUnits="userSpaceOnUse"
       id="linearGradient5642"
       xlink:href="#linearGradient5409"
       inkscape:collect="always" />
    <linearGradient
       y2="903.79285"
       x2="-459.42578"
       y1="903.79285"
       x1="-588.79816"
       gradientUnits="userSpaceOnUse"
       id="linearGradient5644"
       xlink:href="#linearGradient5409"
       inkscape:collect="always" />
    <linearGradient
       y2="903.79285"
       x2="-459.42578"
       y1="903.79285"
       x1="-588.79816"
       gradientUnits="userSpaceOnUse"
       id="linearGradient5646"
       xlink:href="#linearGradient5409"
       inkscape:collect="always" />
    <linearGradient
       y2="903.79285"
       x2="-459.42578"
       y1="903.79285"
       x1="-588.79816"
       gradientUnits="userSpaceOnUse"
       id="linearGradient5648"
       xlink:href="#linearGradient5409"
       inkscape:collect="always" />
    <linearGradient
       y2="903.79285"
       x2="-459.42578"
       y1="903.79285"
       x1="-588.79816"
       gradientUnits="userSpaceOnUse"
       id="linearGradient5650"
       xlink:href="#linearGradient5409"
       inkscape:collect="always" />
    <linearGradient
       y2="903.79285"
       x2="-459.42578"
       y1="903.79285"
       x1="-588.79816"
       gradientUnits="userSpaceOnUse"
       id="linearGradient5652"
       xlink:href="#linearGradient5409"
       inkscape:collect="always" />
    <linearGradient
       y2="903.79285"
       x2="-459.42578"
       y1="903.79285"
       x1="-588.79816"
       gradientUnits="userSpaceOnUse"
       id="linearGradient5654"
       xlink:href="#linearGradient5409"
       inkscape:collect="always" />
    <linearGradient
       y2="903.79285"
       x2="-459.42578"
       y1="903.79285"
       x1="-588.79816"
       gradientUnits="userSpaceOnUse"
       id="linearGradient5656"
       xlink:href="#linearGradient5409"
       inkscape:collect="always" />
    <linearGradient
       y2="903.79285"
       x2="-459.42578"
       y1="903.79285"
       x1="-588.79816"
       gradientUnits="userSpaceOnUse"
       id="linearGradient5658"
       xlink:href="#linearGradient5409"
       inkscape:collect="always" />
    <linearGradient
       y2="903.79285"
       x2="-459.42578"
       y1="903.79285"
       x1="-588.79816"
       gradientUnits="userSpaceOnUse"
       id="linearGradient5660"
       xlink:href="#linearGradient5409"
       inkscape:collect="always" />
    <linearGradient
       inkscape:collect="always"
       xlink:href="#linearGradient5409-2"
       id="linearGradient4859"
       x1="-606.32935"
       y1="1138.1901"
       x2="-476.95706"
       y2="1138.1901"
       gradientUnits="userSpaceOnUse" />
    <linearGradient
       id="linearGradient5409-2"
       osb:paint="solid">
      <stop
         style="stop-color:#000000;stop-opacity:1;"
         offset="0"
         id="stop5411-2" />
    </linearGradient>
    <filter
       inkscape:collect="always"
       id="filter4515"
       x="-0.10462177"
       width="1.2092435"
       y="-0.11590752"
       height="1.231815"
       color-interpolation-filters="sRGB">
      <feGaussianBlur
         inkscape:collect="always"
         stdDeviation="4.6110333"
         id="feGaussianBlur4517" />
    </filter>
    <linearGradient
       inkscape:collect="always"
       xlink:href="#linearGradient4704-00"
       id="linearGradient6065"
       gradientUnits="userSpaceOnUse"
       gradientTransform="translate(-602,1077.3278)"
       x1="54"
       y1="-6.3316364e-008"
       x2="54"
       y2="120.56637" />
    <linearGradient
       id="linearGradient4704-00">
      <stop
         style="stop-color:#505050;stop-opacity:1;"
         offset="0"
         id="stop4706-2" />
      <stop
         style="stop-color:#000000;stop-opacity:1;"
         offset="1"
         id="stop4708-3" />
    </linearGradient>
  </defs>
  <sodipodi:namedview
     id="base"
     pagecolor="#ffffff"
     bordercolor="#666666"
     borderopacity="1.0"
     inkscape:pageopacity="0.0"
     inkscape:pageshadow="2"
     inkscape:zoom="1"
     inkscape:cx="-53.92857"
     inkscape:cy="51"
     inkscape:document-units="px"
     inkscape:current-layer="layer1"
     showgrid="false"
     inkscape:window-width="876"
     inkscape:window-height="611"
     inkscape:window-x="1810"
     inkscape:window-y="300"
     inkscape:window-maximized="0" />
  <metadata
     id="metadata3518">
    <rdf:RDF>
      <cc:Work
         rdf:about="">
        <dc:format>image/svg+xml</dc:format>
        <dc:type
           rdf:resource="http://purl.org/dc/dcmitype/StillImage" />
        <dc:title></dc:title>
        <cc:license
           rdf:resource="http://creativecommons.org/licenses/by-nc-sa/3.0/" />
        <dc:source>http://merlinthered.deviantart.com/art/plain-weather-icons-157162192</dc:source>
        <dc:creator>
          <cc:Agent>
            <dc:title>MerlinTheRed</dc:title>
          </cc:Agent>
        </dc:creator>
      </cc:Work>
      <cc:License
         rdf:about="http://creativecommons.org/licenses/by-nc-sa/3.0/">
        <cc:permits
           rdf:resource="http://creativecommons.org/ns#Reproduction" />
        <cc:permits
           rdf:resource="http://creativecommons.org/ns#Distribution" />
        <cc:requires
           rdf:resource="http://creativecommons.org/ns#Notice" />
        <cc:requires
           rdf:resource="http://creativecommons.org/ns#Attribution" />
        <cc:prohibits
           rdf:resource="http://creativecommons.org/ns#CommercialUse" />
        <cc:permits
           rdf:resource="http://creativecommons.org/ns#DerivativeWorks" />
        <cc:requires
           rdf:resource="http://creativecommons.org/ns#ShareAlike" />
      </cc:License>
    </rdf:RDF>
  </metadata>
  <g
     inkscape:label="Ebene 1"
     inkscape:groupmode="layer"
     id="layer1"
     transform="translate(0,-924.36218)">
    <g
       id="g4743"
       transform="matrix(1.0661115,0,0,1.0661115,641.45206,-225.07536)">
      <path
         id="path3325"
         d="m -560.8125,1090.4528 c -1.0259,-0.01 -2.10431,0.047 -3.21875,0.1875 -17.79816,2.25 -17.25,17.25 -17.25,17.25 -7.28984,1.2171 -13.25,7.4675 -13.25,14 0,6.5324 7.61805,12.3188 14,14 3.79621,1 8.78125,0 8.78125,0 2.25347,3.9031 9.66184,6.5 14.84375,6.5 8.44939,0 17.125,-2.75 19.125,-6.5 0,0 34.98746,2.75 42.25,0 10.57262,-4.0034 7.28463,-16.521 0.25,-20.75 -7.03463,-4.229 -16.25,-1.25 -16.25,-1.25 0,0 -0.0204,-8.6045 -9.96875,-12.7188 -9.94833,-4.1142 -18.375,4.9688 -18.375,4.9688 0,0 -5.54894,-15.5944 -20.9375,-15.6875 z m -22.375,50.125 c -3.50193,3.4124 -9.36089,13.8612 -3.65625,15.4062 5.70464,1.545 5.3433,-10.8966 3.65625,-15.4062 z m 59.71875,4.0625 a 0.79781176,0.79781176 0 0 0 -0.625,0.8125 l 0,1.4687 -1.3125,-0.875 a 0.8149003,0.8149003 0 1 0 -0.875,1.375 l 2.1875,1.375 0,2.875 -2.5,-1.4375 -0.0937,-2.5625 a 0.79781176,0.79781176 0 0 0 -0.84375,-0.7812 0.79781176,0.79781176 0 0 0 -0.75,0.8437 l 0.0625,1.5625 -1.28125,-0.75 a 0.80436796,0.80436796 0 1 0 -0.78125,1.4063 l 1.25,0.7187 -1.40625,0.75 a 0.79922413,0.79922413 0 0 0 0.75,1.4063 l 2.3125,-1.1875 2.5,1.4375 -2.5,1.4375 -2.3125,-1.2188 a 0.81069511,0.81069511 0 1 0 -0.75,1.4375 l 1.4375,0.7188 -1.28125,0.7187 a 0.80436796,0.80436796 0 1 0 0.78125,1.4063 l 1.28125,-0.75 -0.0625,1.5937 a 0.79781176,0.79781176 0 1 0 1.59375,0.062 l 0.0937,-2.5937 2.5,-1.4375 0,2.875 -2.1875,1.4062 a 0.79781176,0.79781176 0 1 0 0.875,1.3125 l 1.3125,-0.8437 0,1.4687 a 0.79781176,0.79781176 0 1 0 1.59375,0 l 0,-1.4375 1.34375,0.8438 a 0.79984986,0.79984986 0 1 0 0.84375,-1.3438 l -2.1875,-1.4062 0,-2.875 2.5,1.4375 0.125,2.5937 a 0.79842416,0.79842416 0 0 0 1.59375,-0.062 l -0.0625,-1.5937 1.25,0.75 a 0.8120708,0.8120708 0 1 0 0.8125,-1.4063 l -1.28125,-0.7187 1.40625,-0.7188 a 0.81069511,0.81069511 0 1 0 -0.75,-1.4375 l -2.3125,1.2188 -2.46875,-1.4688 2.46875,-1.4062 2.3125,1.1875 a 0.79781176,0.79781176 0 1 0 0.75,-1.4063 l -1.40625,-0.75 1.28125,-0.7187 a 0.8120708,0.8120708 0 1 0 -0.8125,-1.4063 l -1.25,0.75 0.0625,-1.5625 a 0.79781176,0.79781176 0 0 0 -0.84375,-0.8437 0.79781176,0.79781176 0 0 0 -0.75,0.7812 l -0.125,2.5625 -2.5,1.4375 0,-2.875 2.1875,-1.375 a 0.80661934,0.80661934 0 1 0 -0.84375,-1.375 l -1.34375,0.875 0,-1.4687 a 0.79781176,0.79781176 0 0 0 -0.875,-0.8125 0.79781176,0.79781176 0 0 0 -0.0937,0 z m -48.46875,0.1875 c -1.46446,0 -2.84375,2.0667 -2.84375,3.5312 0,1.4645 1.37929,1.75 2.84375,1.75 1.46447,0 2.625,-2.0667 2.625,-3.5312 0,-1.4644 -1.16053,-1.75 -2.625,-1.75 z m 70.03125,1.4687 c -1.46446,0 -1.59375,2.4418 -1.59375,3.9063 0,1.4645 1.19179,1.2187 2.65625,1.2187 1.46447,0 2.65625,-1.1918 2.65625,-2.6562 0,-1.4645 -2.25428,-2.4688 -3.71875,-2.4688 z m -48.65625,2.4063 c -1.46446,0 -4.0625,1.3792 -4.0625,2.8437 0,1.4645 0.47304,2.8125 1.9375,2.8125 1.46447,0 3.375,-1.348 3.375,-2.8125 0,-1.4645 0.21447,-2.8437 -1.25,-2.8437 z m 8.1875,10.2187 c -3.50193,3.4124 -9.36089,13.8613 -3.65625,15.4063 5.70464,1.545 5.3433,-10.8967 3.65625,-15.4063 z m 35.375,3.25 c -3.50193,3.4124 -9.32964,13.8613 -3.625,15.4063 5.70464,1.545 5.31205,-10.8967 3.625,-15.4063 z m -57.78125,1.9063 a 1.0319234,1.0319234 0 0 0 -0.90625,1.0625 l 0,1.875 -1.71875,-1.0938 a 1.0402073,1.0402073 0 1 0 -1.125,1.75 l 2.84375,1.8125 0,3.7188 -3.25,-1.875 -0.125,-3.3438 a 1.0319234,1.0319234 0 0 0 -1.09375,-1 1.0319234,1.0319234 0 0 0 -0.96875,1.0938 l 0.0937,2.0312 -1.65625,-0.9687 a 1.0426688,1.0426688 0 1 0 -1.03125,1.8125 l 1.625,0.9375 -1.78125,0.9687 a 1.0337219,1.0337219 0 1 0 0.96875,1.8125 l 2.9375,-1.5312 3.25,1.8437 -3.25,1.875 -2.9375,-1.5625 a 1.0414023,1.0414023 0 1 0 -0.96875,1.8438 l 1.8125,0.9375 -1.65625,0.9375 a 1.0319234,1.0319234 0 1 0 1.03125,1.7812 l 1.65625,-0.9375 -0.0937,2.0313 a 1.0323205,1.0323205 0 1 0 2.0625,0.094 l 0.125,-3.3437 3.25,-1.8438 0,3.6875 -2.84375,1.8125 a 1.0319234,1.0319234 0 1 0 1.125,1.7188 l 1.71875,-1.0938 0,1.9375 a 1.0319234,1.0319234 0 1 0 2.0625,0 l 0,-1.9062 1.71875,1.0937 a 1.034561,1.034561 0 1 0 1.09375,-1.75 l -2.8125,-1.7812 0,-3.75 3.21875,1.875 0.15625,3.3437 a 1.0327156,1.0327156 0 1 0 2.0625,-0.094 l -0.0937,-2.0313 1.625,0.9375 a 1.0319234,1.0319234 0 1 0 1.03125,-1.7812 l -1.65625,-0.9375 1.84375,-0.9375 a 1.0414023,1.0414023 0 1 0 -0.96875,-1.8438 l -2.96875,1.5625 -3.21875,-1.875 3.21875,-1.8437 2.96875,1.5312 a 1.0319234,1.0319234 0 1 0 0.96875,-1.8125 l -1.8125,-0.9687 1.625,-0.9375 a 1.0426688,1.0426688 0 1 0 -1.03125,-1.8125 l -1.625,0.9687 0.0937,-2.0312 a 1.0319234,1.0319234 0 0 0 -1.09375,-1.0938 1.0319234,1.0319234 0 0 0 -0.96875,1 l -0.15625,3.3438 -3.21875,1.875 0,-3.7188 2.8125,-1.8125 a 1.034561,1.034561 0 1 0 -1.09375,-1.75 l -1.71875,1.0938 0,-1.875 a 1.0319234,1.0319234 0 0 0 -1.15625,-1.0625 z m 33.09375,3.125 c -1.46446,0 -2.125,1.3792 -2.125,2.8437 0,1.4644 1.19179,2.625 2.65625,2.625 1.46447,0 2.8125,-0.098 2.8125,-1.5625 0,-1.4644 -1.87928,-3.9062 -3.34375,-3.9062 z m -53.75,3.5 c -1.46446,0 -2.65625,1.1917 -2.65625,2.6562 0,1.4644 0.84987,3 3.375,3 1.46447,0 1.9375,-2.7855 1.9375,-4.25 0,-1.4642 -1.19178,-1.4062 -2.65625,-1.4062 z"
         style="opacity:0.6;fill:url(#linearGradient4859);fill-opacity:1;stroke:none;filter:url(#filter4515)"
         inkscape:connector-curvature="0" />
      <path
         style="fill:url(#linearGradient6065);fill-opacity:1;stroke:none"
         d="m -560.8125,1090.4528 c -1.0259,-0.01 -2.10431,0.047 -3.21875,0.1875 -17.79816,2.25 -17.25,17.25 -17.25,17.25 -7.28984,1.2171 -13.25,7.4675 -13.25,14 0,6.5324 7.61805,12.3188 14,14 3.79621,1 8.78125,0 8.78125,0 2.25347,3.9031 9.66184,6.5 14.84375,6.5 8.44939,0 17.125,-2.75 19.125,-6.5 0,0 34.98746,2.75 42.25,0 10.57262,-4.0034 7.28463,-16.521 0.25,-20.75 -7.03463,-4.229 -16.25,-1.25 -16.25,-1.25 0,0 -0.0204,-8.6045 -9.96875,-12.7188 -9.94833,-4.1142 -18.375,4.9688 -18.375,4.9688 0,0 -5.54894,-15.5944 -20.9375,-15.6875 z m -22.375,50.125 c -3.50193,3.4124 -9.36089,13.8612 -3.65625,15.4062 5.70464,1.545 5.3433,-10.8966 3.65625,-15.4062 z m 59.71875,4.0625 a 0.79781176,0.79781176 0 0 0 -0.625,0.8125 l 0,1.4687 -1.3125,-0.875 a 0.8149003,0.8149003 0 1 0 -0.875,1.375 l 2.1875,1.375 0,2.875 -2.5,-1.4375 -0.0937,-2.5625 a 0.79781176,0.79781176 0 0 0 -0.84375,-0.7812 0.79781176,0.79781176 0 0 0 -0.75,0.8437 l 0.0625,1.5625 -1.28125,-0.75 a 0.80436796,0.80436796 0 1 0 -0.78125,1.4063 l 1.25,0.7187 -1.40625,0.75 a 0.79922413,0.79922413 0 0 0 0.75,1.4063 l 2.3125,-1.1875 2.5,1.4375 -2.5,1.4375 -2.3125,-1.2188 a 0.81069511,0.81069511 0 1 0 -0.75,1.4375 l 1.4375,0.7188 -1.28125,0.7187 a 0.80436796,0.80436796 0 1 0 0.78125,1.4063 l 1.28125,-0.75 -0.0625,1.5937 a 0.79781176,0.79781176 0 1 0 1.59375,0.062 l 0.0937,-2.5937 2.5,-1.4375 0,2.875 -2.1875,1.4062 a 0.79781176,0.79781176 0 1 0 0.875,1.3125 l 1.3125,-0.8437 0,1.4687 a 0.79781176,0.79781176 0 1 0 1.59375,0 l 0,-1.4375 1.34375,0.8438 a 0.79984986,0.79984986 0 1 0 0.84375,-1.3438 l -2.1875,-1.4062 0,-2.875 2.5,1.4375 0.125,2.5937 a 0.79842416,0.79842416 0 0 0 1.59375,-0.062 l -0.0625,-1.5937 1.25,0.75 a 0.8120708,0.8120708 0 1 0 0.8125,-1.4063 l -1.28125,-0.7187 1.40625,-0.7188 a 0.81069511,0.81069511 0 1 0 -0.75,-1.4375 l -2.3125,1.2188 -2.46875,-1.4688 2.46875,-1.4062 2.3125,1.1875 a 0.79781176,0.79781176 0 1 0 0.75,-1.4063 l -1.40625,-0.75 1.28125,-0.7187 a 0.8120708,0.8120708 0 1 0 -0.8125,-1.4063 l -1.25,0.75 0.0625,-1.5625 a 0.79781176,0.79781176 0 0 0 -0.84375,-0.8437 0.79781176,0.79781176 0 0 0 -0.75,0.7812 l -0.125,2.5625 -2.5,1.4375 0,-2.875 2.1875,-1.375 a 0.80661934,0.80661934 0 1 0 -0.84375,-1.375 l -1.34375,0.875 0,-1.4687 a 0.79781176,0.79781176 0 0 0 -0.875,-0.8125 0.79781176,0.79781176 0 0 0 -0.0937,0 z m -48.46875,0.1875 c -1.46446,0 -2.84375,2.0667 -2.84375,3.5312 0,1.4645 1.37929,1.75 2.84375,1.75 1.46447,0 2.625,-2.0667 2.625,-3.5312 0,-1.4644 -1.16053,-1.75 -2.625,-1.75 z m 70.03125,1.4687 c -1.46446,0 -1.59375,2.4418 -1.59375,3.9063 0,1.4645 1.19179,1.2187 2.65625,1.2187 1.46447,0 2.65625,-1.1918 2.65625,-2.6562 0,-1.4645 -2.25428,-2.4688 -3.71875,-2.4688 z m -48.65625,2.4063 c -1.46446,0 -4.0625,1.3792 -4.0625,2.8437 0,1.4645 0.47304,2.8125 1.9375,2.8125 1.46447,0 3.375,-1.348 3.375,-2.8125 0,-1.4645 0.21447,-2.8437 -1.25,-2.8437 z m 8.1875,10.2187 c -3.50193,3.4124 -9.36089,13.8613 -3.65625,15.4063 5.70464,1.545 5.3433,-10.8967 3.65625,-15.4063 z m 35.375,3.25 c -3.50193,3.4124 -9.32964,13.8613 -3.625,15.4063 5.70464,1.545 5.31205,-10.8967 3.625,-15.4063 z m -57.78125,1.9063 a 1.0319234,1.0319234 0 0 0 -0.90625,1.0625 l 0,1.875 -1.71875,-1.0938 a 1.0402073,1.0402073 0 1 0 -1.125,1.75 l 2.84375,1.8125 0,3.7188 -3.25,-1.875 -0.125,-3.3438 a 1.0319234,1.0319234 0 0 0 -1.09375,-1 1.0319234,1.0319234 0 0 0 -0.96875,1.0938 l 0.0937,2.0312 -1.65625,-0.9687 a 1.0426688,1.0426688 0 1 0 -1.03125,1.8125 l 1.625,0.9375 -1.78125,0.9687 a 1.0337219,1.0337219 0 1 0 0.96875,1.8125 l 2.9375,-1.5312 3.25,1.8437 -3.25,1.875 -2.9375,-1.5625 a 1.0414023,1.0414023 0 1 0 -0.96875,1.8438 l 1.8125,0.9375 -1.65625,0.9375 a 1.0319234,1.0319234 0 1 0 1.03125,1.7812 l 1.65625,-0.9375 -0.0937,2.0313 a 1.0323205,1.0323205 0 1 0 2.0625,0.094 l 0.125,-3.3437 3.25,-1.8438 0,3.6875 -2.84375,1.8125 a 1.0319234,1.0319234 0 1 0 1.125,1.7188 l 1.71875,-1.0938 0,1.9375 a 1.0319234,1.0319234 0 1 0 2.0625,0 l 0,-1.9062 1.71875,1.0937 a 1.034561,1.034561 0 1 0 1.09375,-1.75 l -2.8125,-1.7812 0,-3.75 3.21875,1.875 0.15625,3.3437 a 1.0327156,1.0327156 0 1 0 2.0625,-0.094 l -0.0937,-2.0313 1.625,0.9375 a 1.0319234,1.0319234 0 1 0 1.03125,-1.7812 l -1.65625,-0.9375 1.84375,-0.9375 a 1.0414023,1.0414023 0 1 0 -0.96875,-1.8438 l -2.96875,1.5625 -3.21875,-1.875 3.21875,-1.8437 2.96875,1.5312 a 1.0319234,1.0319234 0 1 0 0.96875,-1.8125 l -1.8125,-0.9687 1.625,-0.9375 a 1.0426688,1.0426688 0 1 0 -1.03125,-1.8125 l -1.625,0.9687 0.0937,-2.0312 a 1.0319234,1.0319234 0 0 0 -1.09375,-1.0938 1.0319234,1.0319234 0 0 0 -0.96875,1 l -0.15625,3.3438 -3.21875,1.875 0,-3.7188 2.8125,-1.8125 a 1.034561,1.034561 0 1 0 -1.09375,-1.75 l -1.71875,1.0938 0,-1.875 a 1.0319234,1.0319234 0 0 0 -1.15625,-1.0625 z m 33.09375,3.125 c -1.46446,0 -2.125,1.3792 -2.125,2.8437 0,1.4644 1.19179,2.625 2.65625,2.625 1.46447,0 2.8125,-0.098 2.8125,-1.5625 0,-1.4644 -1.87928,-3.9062 -3.34375,-3.9062 z m -53.75,3.5 c -1.46446,0 -2.65625,1.1917 -2.65625,2.6562 0,1.4644 0.84987,3 3.375,3 1.46447,0 1.9375,-2.7855 1.9375,-4.25 0,-1.4642 -1.19178,-1.4062 -2.65625,-1.4062 z"
         id="path3570"
         inkscape:connector-curvature="0" />
    </g>
  </g>
</svg>
