<?xml version="1.0" encoding="UTF-8" standalone="no"?>
<!-- Created with Inkscape (http://www.inkscape.org/) -->

<svg
   xmlns:dc="http://purl.org/dc/elements/1.1/"
   xmlns:cc="http://creativecommons.org/ns#"
   xmlns:rdf="http://www.w3.org/1999/02/22-rdf-syntax-ns#"
   xmlns:svg="http://www.w3.org/2000/svg"
   xmlns="http://www.w3.org/2000/svg"
   xmlns:xlink="http://www.w3.org/1999/xlink"
   xmlns:sodipodi="http://sodipodi.sourceforge.net/DTD/sodipodi-0.dtd"
   xmlns:inkscape="http://www.inkscape.org/namespaces/inkscape"
   width="128"
   height="128"
   id="svg3513"
   version="1.1"
   inkscape:version="0.48.1 "
   sodipodi:docname="09.svg">
  <defs
     id="defs3515">
    <inkscape:path-effect
       is_visible="true"
       id="path-effect7110"
       effect="spiro" />
    <inkscape:path-effect
       effect="spiro"
       id="path-effect7107"
       is_visible="true" />
    <inkscape:path-effect
       effect="spiro"
       id="path-effect7104"
       is_visible="true" />
    <linearGradient
       inkscape:collect="always"
       xlink:href="#linearGradient4704"
       id="linearGradient7284"
       gradientUnits="userSpaceOnUse"
       x1="50.18922"
       y1="932.19568"
       x2="50.18922"
       y2="1052.7195" />
    <linearGradient
       id="linearGradient4704">
      <stop
         style="stop-color:#505050;stop-opacity:1;"
         offset="0"
         id="stop4706" />
      <stop
         style="stop-color:#000000;stop-opacity:1;"
         offset="1"
         id="stop4708" />
    </linearGradient>
    <inkscape:path-effect
       is_visible="true"
       id="path-effect3481"
       effect="spiro" />
    <linearGradient
       inkscape:collect="always"
       xlink:href="#linearGradient4704"
       id="linearGradient7286"
       gradientUnits="userSpaceOnUse"
       x1="50.18922"
       y1="932.19568"
       x2="50.18922"
       y2="1052.7195" />
    <linearGradient
       id="linearGradient3484">
      <stop
         style="stop-color:#505050;stop-opacity:1;"
         offset="0"
         id="stop3486" />
      <stop
         style="stop-color:#000000;stop-opacity:1;"
         offset="1"
         id="stop3488" />
    </linearGradient>
    <inkscape:path-effect
       effect="spiro"
       id="path-effect3490"
       is_visible="true" />
    <linearGradient
       inkscape:collect="always"
       xlink:href="#linearGradient4704"
       id="linearGradient7288"
       gradientUnits="userSpaceOnUse"
       x1="50.18922"
       y1="932.19568"
       x2="50.18922"
       y2="1052.7195" />
    <linearGradient
       id="linearGradient3493">
      <stop
         style="stop-color:#505050;stop-opacity:1;"
         offset="0"
         id="stop3495" />
      <stop
         style="stop-color:#000000;stop-opacity:1;"
         offset="1"
         id="stop3497" />
    </linearGradient>
    <inkscape:path-effect
       effect="spiro"
       id="path-effect3499"
       is_visible="true" />
    <linearGradient
       inkscape:collect="always"
       xlink:href="#linearGradient4704-1"
       id="linearGradient5141"
       gradientUnits="userSpaceOnUse"
       gradientTransform="translate(-601.65625,1193.2559)"
       x1="55.507881"
       y1="0.14540049"
       x2="55.507881"
       y2="120.45541" />
    <linearGradient
       id="linearGradient4704-1">
      <stop
         style="stop-color:#505050;stop-opacity:1;"
         offset="0"
         id="stop4706-7" />
      <stop
         style="stop-color:#000000;stop-opacity:1;"
         offset="1"
         id="stop4708-4" />
    </linearGradient>
    <filter
       inkscape:collect="always"
       id="filter4403"
       x="-0.10462177"
       width="1.2092435"
       y="-0.12367717"
       height="1.2473543"
       color-interpolation-filters="sRGB">
      <feGaussianBlur
         inkscape:collect="always"
         stdDeviation="4.6110333"
         id="feGaussianBlur4405" />
    </filter>
    <linearGradient
       inkscape:collect="always"
       xlink:href="#linearGradient4704-0"
       id="linearGradient4791"
       gradientUnits="userSpaceOnUse"
       x1="49.734631"
       y1="937.51898"
       x2="49.734631"
       y2="1057.7362" />
    <linearGradient
       id="linearGradient4704-0">
      <stop
         style="stop-color:#505050;stop-opacity:1;"
         offset="0"
         id="stop4706-6" />
      <stop
         style="stop-color:#000000;stop-opacity:1;"
         offset="1"
         id="stop4708-1" />
    </linearGradient>
    <linearGradient
       inkscape:collect="always"
       xlink:href="#linearGradient4704-0"
       id="linearGradient5618"
       gradientUnits="userSpaceOnUse"
       x1="49.734631"
       y1="937.51898"
       x2="49.734631"
       y2="1057.7362" />
    <linearGradient
       id="linearGradient4266">
      <stop
         style="stop-color:#505050;stop-opacity:1;"
         offset="0"
         id="stop4268" />
      <stop
         style="stop-color:#000000;stop-opacity:1;"
         offset="1"
         id="stop4270" />
    </linearGradient>
    <linearGradient
       inkscape:collect="always"
       xlink:href="#linearGradient4704-0"
       id="linearGradient5620"
       gradientUnits="userSpaceOnUse"
       x1="49.734631"
       y1="937.51898"
       x2="49.734631"
       y2="1057.7362" />
    <linearGradient
       id="linearGradient4273">
      <stop
         style="stop-color:#505050;stop-opacity:1;"
         offset="0"
         id="stop4275" />
      <stop
         style="stop-color:#000000;stop-opacity:1;"
         offset="1"
         id="stop4277" />
    </linearGradient>
    <linearGradient
       inkscape:collect="always"
       xlink:href="#linearGradient4704-0"
       id="linearGradient5622"
       gradientUnits="userSpaceOnUse"
       x1="49.734631"
       y1="937.51898"
       x2="49.734631"
       y2="1057.7362" />
    <linearGradient
       id="linearGradient4280">
      <stop
         style="stop-color:#505050;stop-opacity:1;"
         offset="0"
         id="stop4282" />
      <stop
         style="stop-color:#000000;stop-opacity:1;"
         offset="1"
         id="stop4284" />
    </linearGradient>
    <linearGradient
       inkscape:collect="always"
       xlink:href="#linearGradient4704-0"
       id="linearGradient5624"
       gradientUnits="userSpaceOnUse"
       x1="49.734631"
       y1="937.51898"
       x2="49.734631"
       y2="1057.7362" />
    <linearGradient
       id="linearGradient4287">
      <stop
         style="stop-color:#505050;stop-opacity:1;"
         offset="0"
         id="stop4289" />
      <stop
         style="stop-color:#000000;stop-opacity:1;"
         offset="1"
         id="stop4291" />
    </linearGradient>
    <linearGradient
       inkscape:collect="always"
       xlink:href="#linearGradient4704-0"
       id="linearGradient5626"
       gradientUnits="userSpaceOnUse"
       x1="49.734631"
       y1="937.51898"
       x2="49.734631"
       y2="1057.7362" />
    <linearGradient
       id="linearGradient4294">
      <stop
         style="stop-color:#505050;stop-opacity:1;"
         offset="0"
         id="stop4296" />
      <stop
         style="stop-color:#000000;stop-opacity:1;"
         offset="1"
         id="stop4298" />
    </linearGradient>
    <linearGradient
       inkscape:collect="always"
       xlink:href="#linearGradient4704-0"
       id="linearGradient5628"
       gradientUnits="userSpaceOnUse"
       x1="49.734631"
       y1="937.51898"
       x2="49.734631"
       y2="1057.7362" />
    <linearGradient
       id="linearGradient4301">
      <stop
         style="stop-color:#505050;stop-opacity:1;"
         offset="0"
         id="stop4303" />
      <stop
         style="stop-color:#000000;stop-opacity:1;"
         offset="1"
         id="stop4305" />
    </linearGradient>
    <filter
       inkscape:collect="always"
       id="filter4407"
       x="-0.10323786"
       width="1.2064757"
       y="-0.10567694"
       height="1.2113539"
       color-interpolation-filters="sRGB">
      <feGaussianBlur
         inkscape:collect="always"
         stdDeviation="4.6110333"
         id="feGaussianBlur4409" />
    </filter>
    <linearGradient
       inkscape:collect="always"
       xlink:href="#linearGradient4704-9"
       id="linearGradient4522"
       gradientUnits="userSpaceOnUse"
       gradientTransform="translate(-601.82229,1318.5833)"
       x1="51.836906"
       y1="0.23269074"
       x2="51.836906"
       y2="120.3674" />
    <linearGradient
       id="linearGradient4704-9">
      <stop
         style="stop-color:#505050;stop-opacity:1;"
         offset="0"
         id="stop4706-3" />
      <stop
         style="stop-color:#000000;stop-opacity:1;"
         offset="1"
         id="stop4708-9" />
    </linearGradient>
  </defs>
  <sodipodi:namedview
     id="base"
     pagecolor="#ffffff"
     bordercolor="#666666"
     borderopacity="1.0"
     inkscape:pageopacity="0.0"
     inkscape:pageshadow="2"
     inkscape:zoom="1"
     inkscape:cx="55.07143"
     inkscape:cy="29"
     inkscape:document-units="px"
     inkscape:current-layer="layer1"
     showgrid="false"
     inkscape:window-width="876"
     inkscape:window-height="714"
     inkscape:window-x="1879"
     inkscape:window-y="250"
     inkscape:window-maximized="0" />
  <metadata
     id="metadata3518">
    <rdf:RDF>
      <cc:Work
         rdf:about="">
        <dc:format>image/svg+xml</dc:format>
        <dc:type
           rdf:resource="http://purl.org/dc/dcmitype/StillImage" />
        <dc:title></dc:title>
        <dc:creator>
          <cc:Agent>
            <dc:title>MerlinTheRed</dc:title>
          </cc:Agent>
        </dc:creator>
        <dc:source>http://merlinthered.deviantart.com/art/plain-weather-icons-157162192</dc:source>
        <cc:license
           rdf:resource="http://creativecommons.org/licenses/by-nc-sa/3.0/" />
      </cc:Work>
      <cc:License
         rdf:about="http://creativecommons.org/licenses/by-nc-sa/3.0/">
        <cc:permits
           rdf:resource="http://creativecommons.org/ns#Reproduction" />
        <cc:permits
           rdf:resource="http://creativecommons.org/ns#Distribution" />
        <cc:requires
           rdf:resource="http://creativecommons.org/ns#Notice" />
        <cc:requires
           rdf:resource="http://creativecommons.org/ns#Attribution" />
        <cc:prohibits
           rdf:resource="http://creativecommons.org/ns#CommercialUse" />
        <cc:permits
           rdf:resource="http://creativecommons.org/ns#DerivativeWorks" />
        <cc:requires
           rdf:resource="http://creativecommons.org/ns#ShareAlike" />
      </cc:License>
    </rdf:RDF>
  </metadata>
  <g
     inkscape:label="Ebene 1"
     inkscape:groupmode="layer"
     id="layer1"
     transform="translate(0,-924.36218)">
    <g
       id="g4763"
       transform="matrix(1.0544282,0,0,1.0544282,635.12388,-471.20195)">
      <path
         style="opacity:0.6;fill:#000000;fill-opacity:1;fill-rule:nonzero;stroke:none;filter:url(#filter4407)"
         d="m -560.10354,1331.8645 c -1.0259,-0.01 -2.10431,0.047 -3.21875,0.1875 -17.79816,2.25 -17.25,17.25 -17.25,17.25 -7.28984,1.2171 -13.25,7.4675 -13.25,14 0,6.5324 7.61805,12.3188 14,14 3.79621,1 8.78125,0 8.78125,0 2.25347,3.9031 9.66184,6.5 14.84375,6.5 8.44939,0 17.125,-2.75 19.125,-6.5 0,0 34.98746,2.75 42.25,0 10.57262,-4.0034 7.28463,-16.521 0.25,-20.75 -7.03463,-4.229 -16.25,-1.25 -16.25,-1.25 0,0 -0.0204,-8.6045 -9.96875,-12.7187 -9.94833,-4.1143 -18.375,4.9687 -18.375,4.9687 0,0 -5.54894,-15.5943 -20.9375,-15.6875 z m 2.15625,12.125 a 1.50015,1.50015 0 0 1 1.65625,1.5313 l 0,2.75 2.5,-1.5938 a 1.5040034,1.5040034 0 0 1 1.625,2.5313 l -4.125,2.625 0,5.4062 4.6875,-2.7187 0.21875,-4.8438 a 1.50015,1.50015 0 0 1 1.40625,-1.4687 1.50015,1.50015 0 0 1 1.59375,1.5937 l -0.125,2.9375 2.375,-1.375 a 1.5116733,1.5116733 0 0 1 1.5,2.625 l -2.375,1.375 2.625,1.375 a 1.50015,1.50015 0 1 1 -1.375,2.6563 l -4.34375,-2.25 -4.6875,2.6875 4.6875,2.7187 4.34375,-2.25 a 1.50015,1.50015 0 1 1 1.375,2.6563 l -2.65625,1.375 2.40625,1.375 a 1.50015,1.50015 0 1 1 -1.5,2.5937 l -2.375,-1.375 0.125,2.9688 a 1.5013015,1.5013015 0 0 1 -3,0.125 l -0.21875,-4.875 -4.6875,-2.7188 0,5.4375 4.125,2.625 a 1.5040034,1.5040034 0 0 1 -1.625,2.5313 l -2.5,-1.5938 0,2.75 a 1.50015,1.50015 0 1 1 -3,0 l 0,-2.7812 -2.5,1.5937 a 1.50015,1.50015 0 1 1 -1.625,-2.5 l 4.125,-2.6562 0,-5.375 -4.6875,2.6875 -0.21875,4.875 a 1.50015,1.50015 0 1 1 -2.96875,-0.125 l 0.125,-2.9688 -2.40625,1.375 a 1.50015,1.50015 0 1 1 -1.5,-2.5937 l 2.40625,-1.375 -2.65625,-1.375 a 1.5027865,1.5027865 0 0 1 1.40625,-2.6563 l 4.3125,2.25 4.6875,-2.6875 -4.6875,-2.7187 -4.3125,2.25 a 1.5027865,1.5027865 0 0 1 -1.40625,-2.6563 l 2.625,-1.375 -2.375,-1.375 a 1.5116733,1.5116733 0 0 1 1.5,-2.625 l 2.40625,1.375 -0.125,-2.9375 a 1.50015,1.50015 0 0 1 1.40625,-1.5937 1.50015,1.50015 0 0 1 1.5625,1.4687 l 0.21875,4.8438 4.6875,2.7187 0,-5.4062 -4.125,-2.625 a 1.5040034,1.5040034 0 0 1 1.625,-2.5313 l 2.5,1.5938 0,-2.75 a 1.50015,1.50015 0 0 1 1.34375,-1.5313 z m -20.9375,38.0625 c -5.3144,2.4646 -18.15674,11.5357 -15.4375,14.9375 2.71916,3.4019 12.85413,-9.7004 15.4375,-14.9375 z m 61.875,1.3438 c -5.3144,2.4646 -18.12549,11.5357 -15.40625,14.9375 2.71916,3.4019 12.82288,-9.7005 15.40625,-14.9375 z m 19.03125,0.25 c -5.31439,2.4646 -18.15673,11.5357 -15.4375,14.9375 2.71917,3.4019 12.85414,-9.7004 15.4375,-14.9375 z m -38.84375,3.3125 c -5.31439,2.4646 -18.12548,11.5357 -15.40625,14.9375 2.71916,3.4019 12.82288,-9.7004 15.40625,-14.9375 z m -21.71875,2.2812 c -5.3144,2.4646 -18.12549,11.5045 -15.40625,14.9063 2.71916,3.4019 12.82288,-9.6692 15.40625,-14.9063 z m 64.28125,10.5313 c -5.3144,2.4646 -18.15674,11.5357 -15.4375,14.9375 2.71916,3.4019 12.85413,-9.7004 15.4375,-14.9375 z m -29,0.5312 c -5.3144,2.4646 -18.15673,11.5357 -15.4375,14.9375 2.71916,3.4019 12.85413,-9.7004 15.4375,-14.9375 z m -55.03125,0.25 c -5.3144,2.4646 -18.15674,11.5357 -15.4375,14.9375 2.71916,3.4019 12.85413,-9.7004 15.4375,-14.9375 z m 21.53125,5.5 c -5.31439,2.4646 -18.15673,11.5357 -15.4375,14.9375 2.71916,3.4019 12.85414,-9.7004 15.4375,-14.9375 z m 3.5625,14.5313 c -2.39302,0 -2.38812,3 0,3 l 42.0625,0 c 2.74146,0 2.74574,-3 0,-3 l -42.0625,0 z m -40.25,6 c -2.39302,0 -2.38812,3 0,3 l 42.0625,0 c 2.74146,0 2.74574,-3 0,-3 l -42.0625,0 z m 55.5,1 c -2.39302,0 -2.38812,3 0,3 l 42.0625,0 c 2.74147,0 2.74574,-3 0,-3 l -42.0625,0 z m -35,6 c -2.39302,0 -2.38812,3 0,3 l 42.0625,0 c 2.74146,0 2.74574,-3 0,-3 l -42.0625,0 z"
         id="path3230"
         inkscape:connector-curvature="0" />
      <path
         id="path5742"
         d="m -560.10354,1331.8645 c -1.0259,-0.01 -2.10431,0.047 -3.21875,0.1875 -17.79816,2.25 -17.25,17.25 -17.25,17.25 -7.28984,1.2171 -13.25,7.4675 -13.25,14 0,6.5324 7.61805,12.3188 14,14 3.79621,1 8.78125,0 8.78125,0 2.25347,3.9031 9.66184,6.5 14.84375,6.5 8.44939,0 17.125,-2.75 19.125,-6.5 0,0 34.98746,2.75 42.25,0 10.57262,-4.0034 7.28463,-16.521 0.25,-20.75 -7.03463,-4.229 -16.25,-1.25 -16.25,-1.25 0,0 -0.0204,-8.6045 -9.96875,-12.7187 -9.94833,-4.1143 -18.375,4.9687 -18.375,4.9687 0,0 -5.54894,-15.5943 -20.9375,-15.6875 z m 2.15625,12.125 a 1.50015,1.50015 0 0 1 1.65625,1.5313 l 0,2.75 2.5,-1.5938 a 1.5040034,1.5040034 0 0 1 1.625,2.5313 l -4.125,2.625 0,5.4062 4.6875,-2.7187 0.21875,-4.8438 a 1.50015,1.50015 0 0 1 1.40625,-1.4687 1.50015,1.50015 0 0 1 1.59375,1.5937 l -0.125,2.9375 2.375,-1.375 a 1.5116733,1.5116733 0 0 1 1.5,2.625 l -2.375,1.375 2.625,1.375 a 1.50015,1.50015 0 1 1 -1.375,2.6563 l -4.34375,-2.25 -4.6875,2.6875 4.6875,2.7187 4.34375,-2.25 a 1.50015,1.50015 0 1 1 1.375,2.6563 l -2.65625,1.375 2.40625,1.375 a 1.50015,1.50015 0 1 1 -1.5,2.5937 l -2.375,-1.375 0.125,2.9688 a 1.5013015,1.5013015 0 0 1 -3,0.125 l -0.21875,-4.875 -4.6875,-2.7188 0,5.4375 4.125,2.625 a 1.5040034,1.5040034 0 0 1 -1.625,2.5313 l -2.5,-1.5938 0,2.75 a 1.50015,1.50015 0 1 1 -3,0 l 0,-2.7812 -2.5,1.5937 a 1.50015,1.50015 0 1 1 -1.625,-2.5 l 4.125,-2.6562 0,-5.375 -4.6875,2.6875 -0.21875,4.875 a 1.50015,1.50015 0 1 1 -2.96875,-0.125 l 0.125,-2.9688 -2.40625,1.375 a 1.50015,1.50015 0 1 1 -1.5,-2.5937 l 2.40625,-1.375 -2.65625,-1.375 a 1.5027865,1.5027865 0 0 1 1.40625,-2.6563 l 4.3125,2.25 4.6875,-2.6875 -4.6875,-2.7187 -4.3125,2.25 a 1.5027865,1.5027865 0 0 1 -1.40625,-2.6563 l 2.625,-1.375 -2.375,-1.375 a 1.5116733,1.5116733 0 0 1 1.5,-2.625 l 2.40625,1.375 -0.125,-2.9375 a 1.50015,1.50015 0 0 1 1.40625,-1.5937 1.50015,1.50015 0 0 1 1.5625,1.4687 l 0.21875,4.8438 4.6875,2.7187 0,-5.4062 -4.125,-2.625 a 1.5040034,1.5040034 0 0 1 1.625,-2.5313 l 2.5,1.5938 0,-2.75 a 1.50015,1.50015 0 0 1 1.34375,-1.5313 z m -20.9375,38.0625 c -5.3144,2.4646 -18.15674,11.5357 -15.4375,14.9375 2.71916,3.4019 12.85413,-9.7004 15.4375,-14.9375 z m 61.875,1.3438 c -5.3144,2.4646 -18.12549,11.5357 -15.40625,14.9375 2.71916,3.4019 12.82288,-9.7005 15.40625,-14.9375 z m 19.03125,0.25 c -5.31439,2.4646 -18.15673,11.5357 -15.4375,14.9375 2.71917,3.4019 12.85414,-9.7004 15.4375,-14.9375 z m -38.84375,3.3125 c -5.31439,2.4646 -18.12548,11.5357 -15.40625,14.9375 2.71916,3.4019 12.82288,-9.7004 15.40625,-14.9375 z m -21.71875,2.2812 c -5.3144,2.4646 -18.12549,11.5045 -15.40625,14.9063 2.71916,3.4019 12.82288,-9.6692 15.40625,-14.9063 z m 64.28125,10.5313 c -5.3144,2.4646 -18.15674,11.5357 -15.4375,14.9375 2.71916,3.4019 12.85413,-9.7004 15.4375,-14.9375 z m -29,0.5312 c -5.3144,2.4646 -18.15673,11.5357 -15.4375,14.9375 2.71916,3.4019 12.85413,-9.7004 15.4375,-14.9375 z m -55.03125,0.25 c -5.3144,2.4646 -18.15674,11.5357 -15.4375,14.9375 2.71916,3.4019 12.85413,-9.7004 15.4375,-14.9375 z m 21.53125,5.5 c -5.31439,2.4646 -18.15673,11.5357 -15.4375,14.9375 2.71916,3.4019 12.85414,-9.7004 15.4375,-14.9375 z m 3.5625,14.5313 c -2.39302,0 -2.38812,3 0,3 l 42.0625,0 c 2.74146,0 2.74574,-3 0,-3 l -42.0625,0 z m -40.25,6 c -2.39302,0 -2.38812,3 0,3 l 42.0625,0 c 2.74146,0 2.74574,-3 0,-3 l -42.0625,0 z m 55.5,1 c -2.39302,0 -2.38812,3 0,3 l 42.0625,0 c 2.74147,0 2.74574,-3 0,-3 l -42.0625,0 z m -35,6 c -2.39302,0 -2.38812,3 0,3 l 42.0625,0 c 2.74146,0 2.74574,-3 0,-3 l -42.0625,0 z"
         style="fill:url(#linearGradient4522);fill-opacity:1;fill-rule:nonzero;stroke:none"
         inkscape:connector-curvature="0" />
    </g>
  </g>
</svg>
