<?xml version="1.0" encoding="UTF-8" standalone="no"?>
<!-- Created with Inkscape (http://www.inkscape.org/) -->

<svg
   xmlns:osb="http://www.openswatchbook.org/uri/2009/osb"
   xmlns:dc="http://purl.org/dc/elements/1.1/"
   xmlns:cc="http://creativecommons.org/ns#"
   xmlns:rdf="http://www.w3.org/1999/02/22-rdf-syntax-ns#"
   xmlns:svg="http://www.w3.org/2000/svg"
   xmlns="http://www.w3.org/2000/svg"
   xmlns:xlink="http://www.w3.org/1999/xlink"
   xmlns:sodipodi="http://sodipodi.sourceforge.net/DTD/sodipodi-0.dtd"
   xmlns:inkscape="http://www.inkscape.org/namespaces/inkscape"
   width="128"
   height="128"
   id="svg3513"
   version="1.1"
   inkscape:version="0.48.1 "
   sodipodi:docname="12.svg">
  <defs
     id="defs3515">
    <inkscape:path-effect
       is_visible="true"
       id="path-effect7110"
       effect="spiro" />
    <inkscape:path-effect
       effect="spiro"
       id="path-effect7107"
       is_visible="true" />
    <inkscape:path-effect
       effect="spiro"
       id="path-effect7104"
       is_visible="true" />
    <linearGradient
       inkscape:collect="always"
       xlink:href="#linearGradient4704"
       id="linearGradient7284"
       gradientUnits="userSpaceOnUse"
       x1="50.18922"
       y1="932.19568"
       x2="50.18922"
       y2="1052.7195" />
    <linearGradient
       id="linearGradient4704">
      <stop
         style="stop-color:#505050;stop-opacity:1;"
         offset="0"
         id="stop4706" />
      <stop
         style="stop-color:#000000;stop-opacity:1;"
         offset="1"
         id="stop4708" />
    </linearGradient>
    <inkscape:path-effect
       is_visible="true"
       id="path-effect3481"
       effect="spiro" />
    <linearGradient
       inkscape:collect="always"
       xlink:href="#linearGradient4704"
       id="linearGradient7286"
       gradientUnits="userSpaceOnUse"
       x1="50.18922"
       y1="932.19568"
       x2="50.18922"
       y2="1052.7195" />
    <linearGradient
       id="linearGradient3484">
      <stop
         style="stop-color:#505050;stop-opacity:1;"
         offset="0"
         id="stop3486" />
      <stop
         style="stop-color:#000000;stop-opacity:1;"
         offset="1"
         id="stop3488" />
    </linearGradient>
    <inkscape:path-effect
       effect="spiro"
       id="path-effect3490"
       is_visible="true" />
    <linearGradient
       inkscape:collect="always"
       xlink:href="#linearGradient4704"
       id="linearGradient7288"
       gradientUnits="userSpaceOnUse"
       x1="50.18922"
       y1="932.19568"
       x2="50.18922"
       y2="1052.7195" />
    <linearGradient
       id="linearGradient3493">
      <stop
         style="stop-color:#505050;stop-opacity:1;"
         offset="0"
         id="stop3495" />
      <stop
         style="stop-color:#000000;stop-opacity:1;"
         offset="1"
         id="stop3497" />
    </linearGradient>
    <inkscape:path-effect
       effect="spiro"
       id="path-effect3499"
       is_visible="true" />
    <linearGradient
       inkscape:collect="always"
       xlink:href="#linearGradient4704-1"
       id="linearGradient5141"
       gradientUnits="userSpaceOnUse"
       gradientTransform="translate(-601.65625,1193.2559)"
       x1="55.507881"
       y1="0.14540049"
       x2="55.507881"
       y2="120.45541" />
    <linearGradient
       id="linearGradient4704-1">
      <stop
         style="stop-color:#505050;stop-opacity:1;"
         offset="0"
         id="stop4706-7" />
      <stop
         style="stop-color:#000000;stop-opacity:1;"
         offset="1"
         id="stop4708-4" />
    </linearGradient>
    <linearGradient
       inkscape:collect="always"
       xlink:href="#linearGradient4704-0"
       id="linearGradient4791"
       gradientUnits="userSpaceOnUse"
       x1="49.734631"
       y1="937.51898"
       x2="49.734631"
       y2="1057.7362" />
    <linearGradient
       id="linearGradient4704-0">
      <stop
         style="stop-color:#505050;stop-opacity:1;"
         offset="0"
         id="stop4706-6" />
      <stop
         style="stop-color:#000000;stop-opacity:1;"
         offset="1"
         id="stop4708-1" />
    </linearGradient>
    <linearGradient
       inkscape:collect="always"
       xlink:href="#linearGradient4704-0"
       id="linearGradient5618"
       gradientUnits="userSpaceOnUse"
       x1="49.734631"
       y1="937.51898"
       x2="49.734631"
       y2="1057.7362" />
    <linearGradient
       id="linearGradient4266">
      <stop
         style="stop-color:#505050;stop-opacity:1;"
         offset="0"
         id="stop4268" />
      <stop
         style="stop-color:#000000;stop-opacity:1;"
         offset="1"
         id="stop4270" />
    </linearGradient>
    <linearGradient
       inkscape:collect="always"
       xlink:href="#linearGradient4704-0"
       id="linearGradient5620"
       gradientUnits="userSpaceOnUse"
       x1="49.734631"
       y1="937.51898"
       x2="49.734631"
       y2="1057.7362" />
    <linearGradient
       id="linearGradient4273">
      <stop
         style="stop-color:#505050;stop-opacity:1;"
         offset="0"
         id="stop4275" />
      <stop
         style="stop-color:#000000;stop-opacity:1;"
         offset="1"
         id="stop4277" />
    </linearGradient>
    <linearGradient
       inkscape:collect="always"
       xlink:href="#linearGradient4704-0"
       id="linearGradient5622"
       gradientUnits="userSpaceOnUse"
       x1="49.734631"
       y1="937.51898"
       x2="49.734631"
       y2="1057.7362" />
    <linearGradient
       id="linearGradient4280">
      <stop
         style="stop-color:#505050;stop-opacity:1;"
         offset="0"
         id="stop4282" />
      <stop
         style="stop-color:#000000;stop-opacity:1;"
         offset="1"
         id="stop4284" />
    </linearGradient>
    <linearGradient
       inkscape:collect="always"
       xlink:href="#linearGradient4704-0"
       id="linearGradient5624"
       gradientUnits="userSpaceOnUse"
       x1="49.734631"
       y1="937.51898"
       x2="49.734631"
       y2="1057.7362" />
    <linearGradient
       id="linearGradient4287">
      <stop
         style="stop-color:#505050;stop-opacity:1;"
         offset="0"
         id="stop4289" />
      <stop
         style="stop-color:#000000;stop-opacity:1;"
         offset="1"
         id="stop4291" />
    </linearGradient>
    <linearGradient
       inkscape:collect="always"
       xlink:href="#linearGradient4704-0"
       id="linearGradient5626"
       gradientUnits="userSpaceOnUse"
       x1="49.734631"
       y1="937.51898"
       x2="49.734631"
       y2="1057.7362" />
    <linearGradient
       id="linearGradient4294">
      <stop
         style="stop-color:#505050;stop-opacity:1;"
         offset="0"
         id="stop4296" />
      <stop
         style="stop-color:#000000;stop-opacity:1;"
         offset="1"
         id="stop4298" />
    </linearGradient>
    <linearGradient
       inkscape:collect="always"
       xlink:href="#linearGradient4704-0"
       id="linearGradient5628"
       gradientUnits="userSpaceOnUse"
       x1="49.734631"
       y1="937.51898"
       x2="49.734631"
       y2="1057.7362" />
    <linearGradient
       id="linearGradient4301">
      <stop
         style="stop-color:#505050;stop-opacity:1;"
         offset="0"
         id="stop4303" />
      <stop
         style="stop-color:#000000;stop-opacity:1;"
         offset="1"
         id="stop4305" />
    </linearGradient>
    <linearGradient
       inkscape:collect="always"
       xlink:href="#linearGradient4704-9"
       id="linearGradient4522"
       gradientUnits="userSpaceOnUse"
       gradientTransform="translate(-601.82229,1318.5833)"
       x1="51.836906"
       y1="0.23269074"
       x2="51.836906"
       y2="120.3674" />
    <linearGradient
       id="linearGradient4704-9">
      <stop
         style="stop-color:#505050;stop-opacity:1;"
         offset="0"
         id="stop4706-3" />
      <stop
         style="stop-color:#000000;stop-opacity:1;"
         offset="1"
         id="stop4708-9" />
    </linearGradient>
    <filter
       inkscape:collect="always"
       id="filter4415"
       x="-0.10462177"
       width="1.2092435"
       y="-0.12097665"
       height="1.2419533"
       color-interpolation-filters="sRGB">
      <feGaussianBlur
         inkscape:collect="always"
         stdDeviation="4.6110333"
         id="feGaussianBlur4417" />
    </filter>
    <linearGradient
       inkscape:collect="always"
       xlink:href="#linearGradient4704-02"
       id="linearGradient5876"
       gradientUnits="userSpaceOnUse"
       x1="57.982758"
       y1="-0.20815283"
       x2="57.982758"
       y2="120.03327"
       gradientTransform="translate(-771.46875,854.85872)" />
    <linearGradient
       id="linearGradient4704-02">
      <stop
         style="stop-color:#505050;stop-opacity:1;"
         offset="0"
         id="stop4706-31" />
      <stop
         style="stop-color:#000000;stop-opacity:1;"
         offset="1"
         id="stop4708-98" />
    </linearGradient>
    <linearGradient
       inkscape:collect="always"
       xlink:href="#linearGradient5409"
       id="linearGradient4832"
       x1="-606.32941"
       y1="461.12576"
       x2="-476.957"
       y2="461.12576"
       gradientUnits="userSpaceOnUse" />
    <linearGradient
       id="linearGradient5409"
       osb:paint="solid">
      <stop
         style="stop-color:#000000;stop-opacity:1;"
         offset="0"
         id="stop5411" />
    </linearGradient>
    <filter
       inkscape:collect="always"
       id="filter4419"
       x="-0.10462177"
       width="1.2092435"
       y="-0.12462634"
       height="1.2492527"
       color-interpolation-filters="sRGB">
      <feGaussianBlur
         inkscape:collect="always"
         stdDeviation="4.6110333"
         id="feGaussianBlur4421" />
    </filter>
    <linearGradient
       inkscape:collect="always"
       xlink:href="#linearGradient4704-96"
       id="linearGradient6036"
       gradientUnits="userSpaceOnUse"
       x1="52.5"
       y1="-6.3316421e-008"
       x2="52.5"
       y2="120.17591"
       gradientTransform="translate(-601.125,403.44633)" />
    <linearGradient
       id="linearGradient4704-96">
      <stop
         style="stop-color:#505050;stop-opacity:1;"
         offset="0"
         id="stop4706-72" />
      <stop
         style="stop-color:#000000;stop-opacity:1;"
         offset="1"
         id="stop4708-15" />
    </linearGradient>
    <linearGradient
       y2="120.17591"
       x2="52.5"
       y1="-6.3316421e-008"
       x1="52.5"
       gradientTransform="translate(-601.125,403.44633)"
       gradientUnits="userSpaceOnUse"
       id="linearGradient4874"
       xlink:href="#linearGradient4704-96"
       inkscape:collect="always" />
    <linearGradient
       inkscape:collect="always"
       xlink:href="#linearGradient5409-4"
       id="linearGradient4832-6"
       x1="-606.32941"
       y1="461.12576"
       x2="-476.957"
       y2="461.12576"
       gradientUnits="userSpaceOnUse" />
    <linearGradient
       id="linearGradient5409-4"
       osb:paint="solid">
      <stop
         style="stop-color:#000000;stop-opacity:1;"
         offset="0"
         id="stop5411-3" />
    </linearGradient>
    <filter
       inkscape:collect="always"
       id="filter4419-1"
       x="-0.10462177"
       width="1.2092435"
       y="-0.12462634"
       height="1.2492527"
       color-interpolation-filters="sRGB">
      <feGaussianBlur
         inkscape:collect="always"
         stdDeviation="4.6110333"
         id="feGaussianBlur4421-2" />
    </filter>
    <linearGradient
       inkscape:collect="always"
       xlink:href="#linearGradient4704-3"
       id="linearGradient6036-9"
       gradientUnits="userSpaceOnUse"
       x1="52.5"
       y1="-6.3316421e-008"
       x2="52.5"
       y2="120.17591"
       gradientTransform="translate(-601.125,403.44633)" />
    <linearGradient
       id="linearGradient4704-3">
      <stop
         style="stop-color:#505050;stop-opacity:1;"
         offset="0"
         id="stop4706-2" />
      <stop
         style="stop-color:#000000;stop-opacity:1;"
         offset="1"
         id="stop4708-2" />
    </linearGradient>
  </defs>
  <sodipodi:namedview
     id="base"
     pagecolor="#ffffff"
     bordercolor="#666666"
     borderopacity="1.0"
     inkscape:pageopacity="0.0"
     inkscape:pageshadow="2"
     inkscape:zoom="1"
     inkscape:cx="-3.92857"
     inkscape:cy="34"
     inkscape:document-units="px"
     inkscape:current-layer="layer1"
     showgrid="false"
     inkscape:window-width="876"
     inkscape:window-height="714"
     inkscape:window-x="1874"
     inkscape:window-y="413"
     inkscape:window-maximized="0" />
  <metadata
     id="metadata3518">
    <rdf:RDF>
      <cc:Work
         rdf:about="">
        <dc:format>image/svg+xml</dc:format>
        <dc:type
           rdf:resource="http://purl.org/dc/dcmitype/StillImage" />
        <dc:title></dc:title>
        <dc:creator>
          <cc:Agent>
            <dc:title>MerlinTheRed</dc:title>
          </cc:Agent>
        </dc:creator>
        <dc:source>http://merlinthered.deviantart.com/art/plain-weather-icons-157162192</dc:source>
        <cc:license
           rdf:resource="http://creativecommons.org/licenses/by-nc-sa/3.0/" />
      </cc:Work>
      <cc:License
         rdf:about="http://creativecommons.org/licenses/by-nc-sa/3.0/">
        <cc:permits
           rdf:resource="http://creativecommons.org/ns#Reproduction" />
        <cc:permits
           rdf:resource="http://creativecommons.org/ns#Distribution" />
        <cc:requires
           rdf:resource="http://creativecommons.org/ns#Notice" />
        <cc:requires
           rdf:resource="http://creativecommons.org/ns#Attribution" />
        <cc:prohibits
           rdf:resource="http://creativecommons.org/ns#CommercialUse" />
        <cc:permits
           rdf:resource="http://creativecommons.org/ns#DerivativeWorks" />
        <cc:requires
           rdf:resource="http://creativecommons.org/ns#ShareAlike" />
      </cc:License>
    </rdf:RDF>
  </metadata>
  <g
     inkscape:label="Ebene 1"
     inkscape:groupmode="layer"
     id="layer1"
     transform="translate(0,-924.36218)">
    <g
       id="g4593"
       transform="matrix(1.066117,0,0,1.066117,641.45504,496.74816)">
      <path
         style="opacity:0.6;fill:url(#linearGradient4832-6);fill-opacity:1;stroke:none;filter:url(#filter4419-1)"
         d="m -560.8125,416.72758 c -1.02591,-0.006 -2.10432,0.0466 -3.21875,0.1875 -17.79816,2.25 -17.25,17.25 -17.25,17.25 -7.28984,1.2171 -13.25,7.46752 -13.25,14 0,6.5324 7.61805,12.3188 14,14 3.79621,1 8.78125,0 8.78125,0 2.25347,3.9031 9.66184,6.5 14.84375,6.5 8.44939,0 17.125,-2.75 19.125,-6.5 0,0 34.98746,2.75 42.25,0 10.57262,-4.0034 7.28463,-16.52101 0.25,-20.75 -7.03463,-4.22899 -16.25,-1.25 -16.25,-1.25 0,0 -0.0204,-8.6045 -9.96875,-12.71875 -9.94833,-4.11424 -18.375,4.96875 -18.375,4.96875 0,0 -5.54894,-15.59434 -20.9375,-15.6875 z m 42.96875,57.21875 a 0.81470476,0.81470476 0 0 0 -0.65625,0.84375 l 0,2.46875 -2.21875,-1.40625 a 0.8149003,0.8149003 0 1 0 -0.875,1.375 l 3.09375,1.96875 0,4.5625 -3.9375,-2.28125 -0.15625,-3.6875 a 0.81470476,0.81470476 0 0 0 -0.9375,-0.78125 0.81470476,0.81470476 0 0 0 -0.6875,0.84375 l 0.125,2.65625 -2.1875,-1.25 a 0.81470476,0.81470476 0 1 0 -0.8125,1.40625 l 2.1875,1.28125 -2.375,1.21875 a 0.81804001,0.81804001 0 0 0 0.78125,1.4375 l 3.25,-1.6875 3.9375,2.25 -3.9375,2.28125 -3.25,-1.71875 a 0.83182405,0.83182405 0 1 0 -0.78125,1.46875 l 2.34375,1.21875 -2.15625,1.25 a 0.81470476,0.81470476 0 1 0 0.8125,1.40625 l 2.1875,-1.25 -0.125,2.65625 a 0.81470476,0.81470476 0 1 0 1.625,0.0625 l 0.15625,-3.6875 3.9375,-2.25 0,4.53125 -3.09375,1.96875 a 0.8149003,0.8149003 0 1 0 0.875,1.375 l 2.21875,-1.40625 0,2.5 a 0.828125,0.828125 0 0 0 1.65625,0 l 0,-2.5 2.21875,1.40625 a 0.8149003,0.8149003 0 1 0 0.875,-1.375 l -3.09375,-1.96875 0,-4.5625 3.9375,2.28125 0.15625,3.6875 a 0.81470476,0.81470476 0 1 0 1.625,-0.0625 l -0.125,-2.65625 2.1875,1.25 a 0.81470476,0.81470476 0 1 0 0.8125,-1.40625 l -2.15625,-1.25 2.34375,-1.21875 a 0.83182405,0.83182405 0 0 0 -0.78125,-1.46875 l -3.25,1.71875 -3.9375,-2.28125 3.9375,-2.25 3.25,1.6875 a 0.81804001,0.81804001 0 0 0 0.78125,-1.4375 l -2.375,-1.21875 2.1875,-1.28125 a 0.81470476,0.81470476 0 1 0 -0.8125,-1.40625 l -2.1875,1.25 0.125,-2.65625 a 0.81470476,0.81470476 0 0 0 -0.96875,-0.84375 0.81470476,0.81470476 0 0 0 -0.65625,0.78125 l -0.15625,3.6875 -3.9375,2.28125 0,-4.5625 3.09375,-1.96875 a 0.8149003,0.8149003 0 1 0 -0.875,-1.375 l -2.21875,1.40625 0,-2.46875 a 0.81470476,0.81470476 0 0 0 -0.90625,-0.84375 0.81470476,0.81470476 0 0 0 -0.0937,0 z m -48.3125,14.78125 a 0.60915636,0.60915636 0 0 0 -0.15625,0.0312 0.60915636,0.60915636 0 0 0 -0.46875,0.625 l 0,1.84375 -1.6875,-1.0625 a 0.61117523,0.61117523 0 0 0 -0.65625,1.03125 l 2.34375,1.46875 0,3.40625 -2.96875,-1.6875 -0.125,-2.75 a 0.60915636,0.60915636 0 0 0 -0.6875,-0.59375 0.60915636,0.60915636 0 0 0 -0.53125,0.65625 l 0.0937,1.96875 -1.625,-0.9375 a 0.60915636,0.60915636 0 1 0 -0.59375,1.0625 l 1.59375,0.9375 -1.75,0.90625 a 0.6149584,0.6149584 0 1 0 0.5625,1.09375 l 2.46875,-1.28125 2.90625,1.6875 -2.9375,1.71875 -2.4375,-1.28125 a 0.60915636,0.60915636 0 1 0 -0.5625,1.0625 l 1.78125,0.9375 -1.625,0.9375 a 0.60915636,0.60915636 0 1 0 0.59375,1.0625 l 1.625,-0.9375 -0.0937,1.96875 a 0.61018861,0.61018861 0 0 0 1.21875,0.0625 l 0.125,-2.78125 2.96875,-1.6875 0,3.40625 -2.34375,1.46875 a 0.61117523,0.61117523 0 0 0 0.65625,1.03125 l 1.6875,-1.0625 0,1.875 a 0.609375,0.609375 0 0 0 1.21875,0 l 0,-1.875 1.65625,1.0625 a 0.61117523,0.61117523 0 1 0 0.65625,-1.03125 l -2.3125,-1.46875 0,-3.40625 2.9375,1.6875 0.125,2.78125 a 0.61018861,0.61018861 0 0 0 1.21875,-0.0625 l -0.0937,-1.96875 1.625,0.9375 a 0.60915636,0.60915636 0 1 0 0.59375,-1.0625 l -1.625,-0.9375 1.78125,-0.9375 a 0.60915636,0.60915636 0 1 0 -0.5625,-1.0625 l -2.4375,1.28125 -2.96875,-1.71875 2.9375,-1.6875 2.46875,1.28125 a 0.6149584,0.6149584 0 1 0 0.5625,-1.09375 l -1.75,-0.90625 1.59375,-0.9375 a 0.60915636,0.60915636 0 1 0 -0.59375,-1.0625 l -1.625,0.9375 0.0937,-1.96875 A 0.60915636,0.60915636 0 0 0 -562,491.04003 a 0.60915636,0.60915636 0 0 0 -0.5,0.59375 l -0.125,2.75 -2.9375,1.6875 0,-3.40625 2.3125,-1.46875 a 0.61117523,0.61117523 0 0 0 -0.65625,-1.03125 l -1.65625,1.0625 0,-1.84375 a 0.60915636,0.60915636 0 0 0 -0.59375,-0.65625 z"
         id="path3236"
         inkscape:connector-curvature="0" />
      <path
         id="path6034"
         d="m -560.8125,416.72758 c -1.02591,-0.006 -2.10432,0.0466 -3.21875,0.1875 -17.79816,2.25 -17.25,17.25 -17.25,17.25 -7.28984,1.2171 -13.25,7.46752 -13.25,14 0,6.5324 7.61805,12.3188 14,14 3.79621,1 8.78125,0 8.78125,0 2.25347,3.9031 9.66184,6.5 14.84375,6.5 8.44939,0 17.125,-2.75 19.125,-6.5 0,0 34.98746,2.75 42.25,0 10.57262,-4.0034 7.28463,-16.52101 0.25,-20.75 -7.03463,-4.22899 -16.25,-1.25 -16.25,-1.25 0,0 -0.0204,-8.6045 -9.96875,-12.71875 -9.94833,-4.11424 -18.375,4.96875 -18.375,4.96875 0,0 -5.54894,-15.59434 -20.9375,-15.6875 z m 42.96875,57.21875 a 0.81470476,0.81470476 0 0 0 -0.65625,0.84375 l 0,2.46875 -2.21875,-1.40625 a 0.8149003,0.8149003 0 1 0 -0.875,1.375 l 3.09375,1.96875 0,4.5625 -3.9375,-2.28125 -0.15625,-3.6875 a 0.81470476,0.81470476 0 0 0 -0.9375,-0.78125 0.81470476,0.81470476 0 0 0 -0.6875,0.84375 l 0.125,2.65625 -2.1875,-1.25 a 0.81470476,0.81470476 0 1 0 -0.8125,1.40625 l 2.1875,1.28125 -2.375,1.21875 a 0.81804001,0.81804001 0 0 0 0.78125,1.4375 l 3.25,-1.6875 3.9375,2.25 -3.9375,2.28125 -3.25,-1.71875 a 0.83182405,0.83182405 0 1 0 -0.78125,1.46875 l 2.34375,1.21875 -2.15625,1.25 a 0.81470476,0.81470476 0 1 0 0.8125,1.40625 l 2.1875,-1.25 -0.125,2.65625 a 0.81470476,0.81470476 0 1 0 1.625,0.0625 l 0.15625,-3.6875 3.9375,-2.25 0,4.53125 -3.09375,1.96875 a 0.8149003,0.8149003 0 1 0 0.875,1.375 l 2.21875,-1.40625 0,2.5 a 0.828125,0.828125 0 0 0 1.65625,0 l 0,-2.5 2.21875,1.40625 a 0.8149003,0.8149003 0 1 0 0.875,-1.375 l -3.09375,-1.96875 0,-4.5625 3.9375,2.28125 0.15625,3.6875 a 0.81470476,0.81470476 0 1 0 1.625,-0.0625 l -0.125,-2.65625 2.1875,1.25 a 0.81470476,0.81470476 0 1 0 0.8125,-1.40625 l -2.15625,-1.25 2.34375,-1.21875 a 0.83182405,0.83182405 0 0 0 -0.78125,-1.46875 l -3.25,1.71875 -3.9375,-2.28125 3.9375,-2.25 3.25,1.6875 a 0.81804001,0.81804001 0 0 0 0.78125,-1.4375 l -2.375,-1.21875 2.1875,-1.28125 a 0.81470476,0.81470476 0 1 0 -0.8125,-1.40625 l -2.1875,1.25 0.125,-2.65625 a 0.81470476,0.81470476 0 0 0 -0.96875,-0.84375 0.81470476,0.81470476 0 0 0 -0.65625,0.78125 l -0.15625,3.6875 -3.9375,2.28125 0,-4.5625 3.09375,-1.96875 a 0.8149003,0.8149003 0 1 0 -0.875,-1.375 l -2.21875,1.40625 0,-2.46875 a 0.81470476,0.81470476 0 0 0 -0.90625,-0.84375 0.81470476,0.81470476 0 0 0 -0.0937,0 z m -48.3125,14.78125 a 0.60915636,0.60915636 0 0 0 -0.15625,0.0312 0.60915636,0.60915636 0 0 0 -0.46875,0.625 l 0,1.84375 -1.6875,-1.0625 a 0.61117523,0.61117523 0 0 0 -0.65625,1.03125 l 2.34375,1.46875 0,3.40625 -2.96875,-1.6875 -0.125,-2.75 a 0.60915636,0.60915636 0 0 0 -0.6875,-0.59375 0.60915636,0.60915636 0 0 0 -0.53125,0.65625 l 0.0937,1.96875 -1.625,-0.9375 a 0.60915636,0.60915636 0 1 0 -0.59375,1.0625 l 1.59375,0.9375 -1.75,0.90625 a 0.6149584,0.6149584 0 1 0 0.5625,1.09375 l 2.46875,-1.28125 2.90625,1.6875 -2.9375,1.71875 -2.4375,-1.28125 a 0.60915636,0.60915636 0 1 0 -0.5625,1.0625 l 1.78125,0.9375 -1.625,0.9375 a 0.60915636,0.60915636 0 1 0 0.59375,1.0625 l 1.625,-0.9375 -0.0937,1.96875 a 0.61018861,0.61018861 0 0 0 1.21875,0.0625 l 0.125,-2.78125 2.96875,-1.6875 0,3.40625 -2.34375,1.46875 a 0.61117523,0.61117523 0 0 0 0.65625,1.03125 l 1.6875,-1.0625 0,1.875 a 0.609375,0.609375 0 0 0 1.21875,0 l 0,-1.875 1.65625,1.0625 a 0.61117523,0.61117523 0 1 0 0.65625,-1.03125 l -2.3125,-1.46875 0,-3.40625 2.9375,1.6875 0.125,2.78125 a 0.61018861,0.61018861 0 0 0 1.21875,-0.0625 l -0.0937,-1.96875 1.625,0.9375 a 0.60915636,0.60915636 0 1 0 0.59375,-1.0625 l -1.625,-0.9375 1.78125,-0.9375 a 0.60915636,0.60915636 0 1 0 -0.5625,-1.0625 l -2.4375,1.28125 -2.96875,-1.71875 2.9375,-1.6875 2.46875,1.28125 a 0.6149584,0.6149584 0 1 0 0.5625,-1.09375 l -1.75,-0.90625 1.59375,-0.9375 a 0.60915636,0.60915636 0 1 0 -0.59375,-1.0625 l -1.625,0.9375 0.0937,-1.96875 A 0.60915636,0.60915636 0 0 0 -562,491.04003 a 0.60915636,0.60915636 0 0 0 -0.5,0.59375 l -0.125,2.75 -2.9375,1.6875 0,-3.40625 2.3125,-1.46875 a 0.61117523,0.61117523 0 0 0 -0.65625,-1.03125 l -1.65625,1.0625 0,-1.84375 a 0.60915636,0.60915636 0 0 0 -0.59375,-0.65625 z"
         style="fill:url(#linearGradient6036-9);fill-opacity:1;stroke:none"
         inkscape:connector-curvature="0" />
    </g>
  </g>
</svg>
