<?xml version="1.0" encoding="UTF-8" standalone="no"?>
<!-- Created with Inkscape (http://www.inkscape.org/) -->

<svg
   xmlns:osb="http://www.openswatchbook.org/uri/2009/osb"
   xmlns:dc="http://purl.org/dc/elements/1.1/"
   xmlns:cc="http://creativecommons.org/ns#"
   xmlns:rdf="http://www.w3.org/1999/02/22-rdf-syntax-ns#"
   xmlns:svg="http://www.w3.org/2000/svg"
   xmlns="http://www.w3.org/2000/svg"
   xmlns:xlink="http://www.w3.org/1999/xlink"
   xmlns:sodipodi="http://sodipodi.sourceforge.net/DTD/sodipodi-0.dtd"
   xmlns:inkscape="http://www.inkscape.org/namespaces/inkscape"
   width="128"
   height="128"
   id="svg3513"
   version="1.1"
   inkscape:version="0.48.1 "
   sodipodi:docname="16.svg">
  <defs
     id="defs3515">
    <inkscape:path-effect
       is_visible="true"
       id="path-effect7110"
       effect="spiro" />
    <inkscape:path-effect
       effect="spiro"
       id="path-effect7107"
       is_visible="true" />
    <inkscape:path-effect
       effect="spiro"
       id="path-effect7104"
       is_visible="true" />
    <linearGradient
       inkscape:collect="always"
       xlink:href="#linearGradient4704"
       id="linearGradient7284"
       gradientUnits="userSpaceOnUse"
       x1="50.18922"
       y1="932.19568"
       x2="50.18922"
       y2="1052.7195" />
    <linearGradient
       id="linearGradient4704">
      <stop
         style="stop-color:#505050;stop-opacity:1;"
         offset="0"
         id="stop4706" />
      <stop
         style="stop-color:#000000;stop-opacity:1;"
         offset="1"
         id="stop4708" />
    </linearGradient>
    <inkscape:path-effect
       is_visible="true"
       id="path-effect3481"
       effect="spiro" />
    <linearGradient
       inkscape:collect="always"
       xlink:href="#linearGradient4704"
       id="linearGradient7286"
       gradientUnits="userSpaceOnUse"
       x1="50.18922"
       y1="932.19568"
       x2="50.18922"
       y2="1052.7195" />
    <linearGradient
       id="linearGradient3484">
      <stop
         style="stop-color:#505050;stop-opacity:1;"
         offset="0"
         id="stop3486" />
      <stop
         style="stop-color:#000000;stop-opacity:1;"
         offset="1"
         id="stop3488" />
    </linearGradient>
    <inkscape:path-effect
       effect="spiro"
       id="path-effect3490"
       is_visible="true" />
    <linearGradient
       inkscape:collect="always"
       xlink:href="#linearGradient4704"
       id="linearGradient7288"
       gradientUnits="userSpaceOnUse"
       x1="50.18922"
       y1="932.19568"
       x2="50.18922"
       y2="1052.7195" />
    <linearGradient
       id="linearGradient3493">
      <stop
         style="stop-color:#505050;stop-opacity:1;"
         offset="0"
         id="stop3495" />
      <stop
         style="stop-color:#000000;stop-opacity:1;"
         offset="1"
         id="stop3497" />
    </linearGradient>
    <inkscape:path-effect
       effect="spiro"
       id="path-effect3499"
       is_visible="true" />
    <linearGradient
       inkscape:collect="always"
       xlink:href="#linearGradient4704-1"
       id="linearGradient5141"
       gradientUnits="userSpaceOnUse"
       gradientTransform="translate(-601.65625,1193.2559)"
       x1="55.507881"
       y1="0.14540049"
       x2="55.507881"
       y2="120.45541" />
    <linearGradient
       id="linearGradient4704-1">
      <stop
         style="stop-color:#505050;stop-opacity:1;"
         offset="0"
         id="stop4706-7" />
      <stop
         style="stop-color:#000000;stop-opacity:1;"
         offset="1"
         id="stop4708-4" />
    </linearGradient>
    <linearGradient
       inkscape:collect="always"
       xlink:href="#linearGradient4704-0"
       id="linearGradient4791"
       gradientUnits="userSpaceOnUse"
       x1="49.734631"
       y1="937.51898"
       x2="49.734631"
       y2="1057.7362" />
    <linearGradient
       id="linearGradient4704-0">
      <stop
         style="stop-color:#505050;stop-opacity:1;"
         offset="0"
         id="stop4706-6" />
      <stop
         style="stop-color:#000000;stop-opacity:1;"
         offset="1"
         id="stop4708-1" />
    </linearGradient>
    <linearGradient
       inkscape:collect="always"
       xlink:href="#linearGradient4704-0"
       id="linearGradient5618"
       gradientUnits="userSpaceOnUse"
       x1="49.734631"
       y1="937.51898"
       x2="49.734631"
       y2="1057.7362" />
    <linearGradient
       id="linearGradient4266">
      <stop
         style="stop-color:#505050;stop-opacity:1;"
         offset="0"
         id="stop4268" />
      <stop
         style="stop-color:#000000;stop-opacity:1;"
         offset="1"
         id="stop4270" />
    </linearGradient>
    <linearGradient
       inkscape:collect="always"
       xlink:href="#linearGradient4704-0"
       id="linearGradient5620"
       gradientUnits="userSpaceOnUse"
       x1="49.734631"
       y1="937.51898"
       x2="49.734631"
       y2="1057.7362" />
    <linearGradient
       id="linearGradient4273">
      <stop
         style="stop-color:#505050;stop-opacity:1;"
         offset="0"
         id="stop4275" />
      <stop
         style="stop-color:#000000;stop-opacity:1;"
         offset="1"
         id="stop4277" />
    </linearGradient>
    <linearGradient
       inkscape:collect="always"
       xlink:href="#linearGradient4704-0"
       id="linearGradient5622"
       gradientUnits="userSpaceOnUse"
       x1="49.734631"
       y1="937.51898"
       x2="49.734631"
       y2="1057.7362" />
    <linearGradient
       id="linearGradient4280">
      <stop
         style="stop-color:#505050;stop-opacity:1;"
         offset="0"
         id="stop4282" />
      <stop
         style="stop-color:#000000;stop-opacity:1;"
         offset="1"
         id="stop4284" />
    </linearGradient>
    <linearGradient
       inkscape:collect="always"
       xlink:href="#linearGradient4704-0"
       id="linearGradient5624"
       gradientUnits="userSpaceOnUse"
       x1="49.734631"
       y1="937.51898"
       x2="49.734631"
       y2="1057.7362" />
    <linearGradient
       id="linearGradient4287">
      <stop
         style="stop-color:#505050;stop-opacity:1;"
         offset="0"
         id="stop4289" />
      <stop
         style="stop-color:#000000;stop-opacity:1;"
         offset="1"
         id="stop4291" />
    </linearGradient>
    <linearGradient
       inkscape:collect="always"
       xlink:href="#linearGradient4704-0"
       id="linearGradient5626"
       gradientUnits="userSpaceOnUse"
       x1="49.734631"
       y1="937.51898"
       x2="49.734631"
       y2="1057.7362" />
    <linearGradient
       id="linearGradient4294">
      <stop
         style="stop-color:#505050;stop-opacity:1;"
         offset="0"
         id="stop4296" />
      <stop
         style="stop-color:#000000;stop-opacity:1;"
         offset="1"
         id="stop4298" />
    </linearGradient>
    <linearGradient
       inkscape:collect="always"
       xlink:href="#linearGradient4704-0"
       id="linearGradient5628"
       gradientUnits="userSpaceOnUse"
       x1="49.734631"
       y1="937.51898"
       x2="49.734631"
       y2="1057.7362" />
    <linearGradient
       id="linearGradient4301">
      <stop
         style="stop-color:#505050;stop-opacity:1;"
         offset="0"
         id="stop4303" />
      <stop
         style="stop-color:#000000;stop-opacity:1;"
         offset="1"
         id="stop4305" />
    </linearGradient>
    <linearGradient
       inkscape:collect="always"
       xlink:href="#linearGradient4704-9"
       id="linearGradient4522"
       gradientUnits="userSpaceOnUse"
       gradientTransform="translate(-601.82229,1318.5833)"
       x1="51.836906"
       y1="0.23269074"
       x2="51.836906"
       y2="120.3674" />
    <linearGradient
       id="linearGradient4704-9">
      <stop
         style="stop-color:#505050;stop-opacity:1;"
         offset="0"
         id="stop4706-3" />
      <stop
         style="stop-color:#000000;stop-opacity:1;"
         offset="1"
         id="stop4708-9" />
    </linearGradient>
    <linearGradient
       inkscape:collect="always"
       xlink:href="#linearGradient4704-02"
       id="linearGradient5876"
       gradientUnits="userSpaceOnUse"
       x1="57.982758"
       y1="-0.20815283"
       x2="57.982758"
       y2="120.03327"
       gradientTransform="translate(-771.46875,854.85872)" />
    <linearGradient
       id="linearGradient4704-02">
      <stop
         style="stop-color:#505050;stop-opacity:1;"
         offset="0"
         id="stop4706-31" />
      <stop
         style="stop-color:#000000;stop-opacity:1;"
         offset="1"
         id="stop4708-98" />
    </linearGradient>
    <linearGradient
       inkscape:collect="always"
       xlink:href="#linearGradient5409"
       id="linearGradient4832"
       x1="-606.32941"
       y1="461.12576"
       x2="-476.957"
       y2="461.12576"
       gradientUnits="userSpaceOnUse" />
    <linearGradient
       id="linearGradient5409"
       osb:paint="solid">
      <stop
         style="stop-color:#000000;stop-opacity:1;"
         offset="0"
         id="stop5411" />
    </linearGradient>
    <linearGradient
       inkscape:collect="always"
       xlink:href="#linearGradient4704-96"
       id="linearGradient6036"
       gradientUnits="userSpaceOnUse"
       x1="52.5"
       y1="-6.3316421e-008"
       x2="52.5"
       y2="120.17591"
       gradientTransform="translate(-601.125,403.44633)" />
    <linearGradient
       id="linearGradient4704-96">
      <stop
         style="stop-color:#505050;stop-opacity:1;"
         offset="0"
         id="stop4706-72" />
      <stop
         style="stop-color:#000000;stop-opacity:1;"
         offset="1"
         id="stop4708-15" />
    </linearGradient>
    <linearGradient
       y2="120.17591"
       x2="52.5"
       y1="-6.3316421e-008"
       x1="52.5"
       gradientTransform="translate(-601.125,403.44633)"
       gradientUnits="userSpaceOnUse"
       id="linearGradient4874"
       xlink:href="#linearGradient4704-96"
       inkscape:collect="always" />
    <linearGradient
       inkscape:collect="always"
       xlink:href="#linearGradient5409-4"
       id="linearGradient4832-6"
       x1="-606.32941"
       y1="461.12576"
       x2="-476.957"
       y2="461.12576"
       gradientUnits="userSpaceOnUse" />
    <linearGradient
       id="linearGradient5409-4"
       osb:paint="solid">
      <stop
         style="stop-color:#000000;stop-opacity:1;"
         offset="0"
         id="stop5411-3" />
    </linearGradient>
    <linearGradient
       inkscape:collect="always"
       xlink:href="#linearGradient4704-3"
       id="linearGradient6036-9"
       gradientUnits="userSpaceOnUse"
       x1="52.5"
       y1="-6.3316421e-008"
       x2="52.5"
       y2="120.17591"
       gradientTransform="translate(-601.125,403.44633)" />
    <linearGradient
       id="linearGradient4704-3">
      <stop
         style="stop-color:#505050;stop-opacity:1;"
         offset="0"
         id="stop4706-2" />
      <stop
         style="stop-color:#000000;stop-opacity:1;"
         offset="1"
         id="stop4708-2" />
    </linearGradient>
    <linearGradient
       inkscape:collect="always"
       xlink:href="#linearGradient4704-36"
       id="linearGradient5072"
       gradientUnits="userSpaceOnUse"
       gradientTransform="translate(-601.125,512.85108)"
       x1="57.27565"
       y1="-0.20815283"
       x2="57.27565"
       y2="120.03327" />
    <linearGradient
       id="linearGradient4704-36">
      <stop
         style="stop-color:#505050;stop-opacity:1;"
         offset="0"
         id="stop4706-8" />
      <stop
         style="stop-color:#000000;stop-opacity:1;"
         offset="1"
         id="stop4708-41" />
    </linearGradient>
    <linearGradient
       inkscape:collect="always"
       xlink:href="#linearGradient4704-7"
       id="linearGradient6883"
       gradientUnits="userSpaceOnUse"
       x1="63.5"
       y1="-6.3316477e-008"
       x2="63.5"
       y2="119.52615"
       gradientTransform="translate(-601.125,1443.9107)" />
    <linearGradient
       id="linearGradient4704-7">
      <stop
         style="stop-color:#505050;stop-opacity:1;"
         offset="0"
         id="stop4706-5" />
      <stop
         style="stop-color:#000000;stop-opacity:1;"
         offset="1"
         id="stop4708-0" />
    </linearGradient>
    <filter
       inkscape:collect="always"
       id="filter4427"
       x="-0.10462177"
       width="1.2092435"
       y="-0.11708574"
       height="1.2341715"
       color-interpolation-filters="sRGB">
      <feGaussianBlur
         inkscape:collect="always"
         stdDeviation="4.6110333"
         id="feGaussianBlur4429" />
    </filter>
    <linearGradient
       inkscape:collect="always"
       xlink:href="#linearGradient4704-5"
       id="linearGradient6638"
       gradientUnits="userSpaceOnUse"
       x1="57.629204"
       y1="0.14540049"
       x2="57.629204"
       y2="120.0881"
       gradientTransform="translate(-601.125,627.25586)" />
    <linearGradient
       id="linearGradient4704-5">
      <stop
         style="stop-color:#505050;stop-opacity:1;"
         offset="0"
         id="stop4706-4" />
      <stop
         style="stop-color:#000000;stop-opacity:1;"
         offset="1"
         id="stop4708-5" />
    </linearGradient>
    <linearGradient
       inkscape:collect="always"
       xlink:href="#linearGradient5409-7"
       id="linearGradient5599"
       x1="-606.32941"
       y1="1623.3613"
       x2="-476.957"
       y2="1623.3613"
       gradientUnits="userSpaceOnUse" />
    <linearGradient
       id="linearGradient5409-7"
       osb:paint="solid">
      <stop
         style="stop-color:#000000;stop-opacity:1;"
         offset="0"
         id="stop5411-37" />
    </linearGradient>
    <filter
       inkscape:collect="always"
       id="filter4435"
       x="-0.10462177"
       width="1.2092435"
       y="-0.11595451"
       height="1.231909"
       color-interpolation-filters="sRGB">
      <feGaussianBlur
         inkscape:collect="always"
         stdDeviation="4.6110333"
         id="feGaussianBlur4437" />
    </filter>
    <linearGradient
       inkscape:collect="always"
       xlink:href="#linearGradient4704-8"
       id="linearGradient6953"
       gradientUnits="userSpaceOnUse"
       x1="58"
       y1="-6.3316477e-008"
       x2="58"
       y2="119.76749"
       gradientTransform="translate(-601.125,1562.3622)" />
    <linearGradient
       id="linearGradient4704-8">
      <stop
         style="stop-color:#505050;stop-opacity:1;"
         offset="0"
         id="stop4706-61" />
      <stop
         style="stop-color:#000000;stop-opacity:1;"
         offset="1"
         id="stop4708-23" />
    </linearGradient>
    <linearGradient
       y2="119.76749"
       x2="58"
       y1="-6.3316477e-008"
       x1="58"
       gradientTransform="translate(-601.125,1562.3622)"
       gradientUnits="userSpaceOnUse"
       id="linearGradient5623"
       xlink:href="#linearGradient4704-8"
       inkscape:collect="always" />
    <linearGradient
       inkscape:collect="always"
       xlink:href="#linearGradient5409-0"
       id="linearGradient5599-4"
       x1="-606.32941"
       y1="1623.3613"
       x2="-476.957"
       y2="1623.3613"
       gradientUnits="userSpaceOnUse" />
    <linearGradient
       id="linearGradient5409-0"
       osb:paint="solid">
      <stop
         style="stop-color:#000000;stop-opacity:1;"
         offset="0"
         id="stop5411-32" />
    </linearGradient>
    <filter
       inkscape:collect="always"
       id="filter4435-3"
       x="-0.10462177"
       width="1.2092435"
       y="-0.11595451"
       height="1.231909"
       color-interpolation-filters="sRGB">
      <feGaussianBlur
         inkscape:collect="always"
         stdDeviation="4.6110333"
         id="feGaussianBlur4437-6" />
    </filter>
    <linearGradient
       inkscape:collect="always"
       xlink:href="#linearGradient4704-2"
       id="linearGradient6953-3"
       gradientUnits="userSpaceOnUse"
       x1="58"
       y1="-6.3316477e-008"
       x2="58"
       y2="119.76749"
       gradientTransform="translate(-601.125,1562.3622)" />
    <linearGradient
       id="linearGradient4704-2">
      <stop
         style="stop-color:#505050;stop-opacity:1;"
         offset="0"
         id="stop4706-71" />
      <stop
         style="stop-color:#000000;stop-opacity:1;"
         offset="1"
         id="stop4708-01" />
    </linearGradient>
  </defs>
  <sodipodi:namedview
     id="base"
     pagecolor="#ffffff"
     bordercolor="#666666"
     borderopacity="1.0"
     inkscape:pageopacity="0.0"
     inkscape:pageshadow="2"
     inkscape:zoom="1"
     inkscape:cx="30.57143"
     inkscape:cy="10"
     inkscape:document-units="px"
     inkscape:current-layer="layer1"
     showgrid="false"
     inkscape:window-width="876"
     inkscape:window-height="714"
     inkscape:window-x="1874"
     inkscape:window-y="413"
     inkscape:window-maximized="0" />
  <metadata
     id="metadata3518">
    <rdf:RDF>
      <cc:Work
         rdf:about="">
        <dc:format>image/svg+xml</dc:format>
        <dc:type
           rdf:resource="http://purl.org/dc/dcmitype/StillImage" />
        <dc:title></dc:title>
        <dc:creator>
          <cc:Agent>
            <dc:title>MerlinTheRed</dc:title>
          </cc:Agent>
        </dc:creator>
        <dc:source>http://merlinthered.deviantart.com/art/plain-weather-icons-157162192</dc:source>
        <cc:license
           rdf:resource="http://creativecommons.org/licenses/by-nc-sa/3.0/" />
      </cc:Work>
      <cc:License
         rdf:about="http://creativecommons.org/licenses/by-nc-sa/3.0/">
        <cc:permits
           rdf:resource="http://creativecommons.org/ns#Reproduction" />
        <cc:permits
           rdf:resource="http://creativecommons.org/ns#Distribution" />
        <cc:requires
           rdf:resource="http://creativecommons.org/ns#Notice" />
        <cc:requires
           rdf:resource="http://creativecommons.org/ns#Attribution" />
        <cc:prohibits
           rdf:resource="http://creativecommons.org/ns#CommercialUse" />
        <cc:permits
           rdf:resource="http://creativecommons.org/ns#DerivativeWorks" />
        <cc:requires
           rdf:resource="http://creativecommons.org/ns#ShareAlike" />
      </cc:License>
    </rdf:RDF>
  </metadata>
  <g
     inkscape:label="Ebene 1"
     inkscape:groupmode="layer"
     id="layer1"
     transform="translate(0,-924.36218)">
    <g
       id="g4787"
       transform="matrix(1.066117,0,0,1.066117,641.45504,-742.33095)">
      <path
         style="opacity:0.6;fill:url(#linearGradient5599-4);fill-opacity:1;stroke:none;filter:url(#filter4435-3)"
         d="m -560.8125,1575.6434 c -1.0259,-0.01 -2.10431,0.047 -3.21875,0.1875 -17.79816,2.25 -17.25,17.25 -17.25,17.25 -7.28984,1.2171 -13.25,7.4675 -13.25,14 0,6.5324 7.61805,12.3188 14,14 3.79621,1 8.78125,0 8.78125,0 2.25347,3.9031 9.66184,6.5 14.84375,6.5 8.44939,0 17.125,-2.75 19.125,-6.5 0,0 34.98746,2.75 42.25,0 10.57262,-4.0034 7.28463,-16.521 0.25,-20.75 -7.03463,-4.229 -16.25,-1.25 -16.25,-1.25 0,0 -0.0204,-8.6045 -9.96875,-12.7187 -9.94833,-4.1143 -18.375,4.9687 -18.375,4.9687 0,0 -5.54894,-15.5943 -20.9375,-15.6875 z m -16.75,56.5313 c -1.46447,0 -4.0625,1.348 -4.0625,2.8125 0,1.4644 0.47303,2.8437 1.9375,2.8437 1.46446,0 3.34375,-1.3793 3.34375,-2.8437 0,-1.4645 0.24571,-2.8125 -1.21875,-2.8125 z m 57.78125,0.062 c -1.46446,0 -2.625,1.1605 -2.625,2.625 0,1.4644 0.81862,3.0312 3.34375,3.0312 1.46447,0 1.9375,-2.7855 1.9375,-4.25 0,-1.4642 -1.19178,-1.4062 -2.65625,-1.4062 z m -30.65625,4.9062 c -1.46447,0 -2.125,1.3793 -2.125,2.8438 0,1.4644 1.19178,2.625 2.65625,2.625 1.46447,0 2.84375,-0.098 2.84375,-1.5625 0,-1.4644 -1.91053,-3.9063 -3.375,-3.9063 z m -15.46875,15.5938 c -1.46446,0 -1.5625,2.4417 -1.5625,3.9062 0,1.4645 1.16054,1.2188 2.625,1.2188 1.46447,0 2.65625,-1.1919 2.65625,-2.6563 0,-1.4645 -2.25428,-2.4687 -3.71875,-2.4687 z m 59.34375,0.6875 c -1.46447,0 -4.0625,1.348 -4.0625,2.8125 0,1.4644 0.47303,2.8437 1.9375,2.8437 1.46446,0 3.34375,-1.3793 3.34375,-2.8437 0,-1.4645 0.24571,-2.8125 -1.21875,-2.8125 z m -24.625,3.9687 c -1.46447,0 -2.125,1.3793 -2.125,2.8438 0,1.4644 1.19178,2.625 2.65625,2.625 1.46447,0 2.84375,-0.098 2.84375,-1.5625 0,-1.4644 -1.91053,-3.9063 -3.375,-3.9063 z m -59.34375,0.8438 c -1.46446,0 -2.625,1.1605 -2.625,2.625 0,1.4644 0.81862,3.0312 3.34375,3.0312 1.46447,0 1.9375,-2.7855 1.9375,-4.25 0,-1.4642 -1.19178,-1.4062 -2.65625,-1.4062 z m 38.96875,7.1875 c -1.46447,0 -4.0625,1.348 -4.0625,2.8125 0,1.4644 0.47303,2.8437 1.9375,2.8437 1.46446,0 3.34375,-1.3793 3.34375,-2.8437 0,-1.4645 0.24571,-2.8125 -1.21875,-2.8125 z"
         id="path3244"
         inkscape:connector-curvature="0" />
      <path
         id="path6951"
         d="m -560.8125,1575.6434 c -1.0259,-0.01 -2.10431,0.047 -3.21875,0.1875 -17.79816,2.25 -17.25,17.25 -17.25,17.25 -7.28984,1.2171 -13.25,7.4675 -13.25,14 0,6.5324 7.61805,12.3188 14,14 3.79621,1 8.78125,0 8.78125,0 2.25347,3.9031 9.66184,6.5 14.84375,6.5 8.44939,0 17.125,-2.75 19.125,-6.5 0,0 34.98746,2.75 42.25,0 10.57262,-4.0034 7.28463,-16.521 0.25,-20.75 -7.03463,-4.229 -16.25,-1.25 -16.25,-1.25 0,0 -0.0204,-8.6045 -9.96875,-12.7187 -9.94833,-4.1143 -18.375,4.9687 -18.375,4.9687 0,0 -5.54894,-15.5943 -20.9375,-15.6875 z m -16.75,56.5313 c -1.46447,0 -4.0625,1.348 -4.0625,2.8125 0,1.4644 0.47303,2.8437 1.9375,2.8437 1.46446,0 3.34375,-1.3793 3.34375,-2.8437 0,-1.4645 0.24571,-2.8125 -1.21875,-2.8125 z m 57.78125,0.062 c -1.46446,0 -2.625,1.1605 -2.625,2.625 0,1.4644 0.81862,3.0312 3.34375,3.0312 1.46447,0 1.9375,-2.7855 1.9375,-4.25 0,-1.4642 -1.19178,-1.4062 -2.65625,-1.4062 z m -30.65625,4.9062 c -1.46447,0 -2.125,1.3793 -2.125,2.8438 0,1.4644 1.19178,2.625 2.65625,2.625 1.46447,0 2.84375,-0.098 2.84375,-1.5625 0,-1.4644 -1.91053,-3.9063 -3.375,-3.9063 z m -15.46875,15.5938 c -1.46446,0 -1.5625,2.4417 -1.5625,3.9062 0,1.4645 1.16054,1.2188 2.625,1.2188 1.46447,0 2.65625,-1.1919 2.65625,-2.6563 0,-1.4645 -2.25428,-2.4687 -3.71875,-2.4687 z m 59.34375,0.6875 c -1.46447,0 -4.0625,1.348 -4.0625,2.8125 0,1.4644 0.47303,2.8437 1.9375,2.8437 1.46446,0 3.34375,-1.3793 3.34375,-2.8437 0,-1.4645 0.24571,-2.8125 -1.21875,-2.8125 z m -24.625,3.9687 c -1.46447,0 -2.125,1.3793 -2.125,2.8438 0,1.4644 1.19178,2.625 2.65625,2.625 1.46447,0 2.84375,-0.098 2.84375,-1.5625 0,-1.4644 -1.91053,-3.9063 -3.375,-3.9063 z m -59.34375,0.8438 c -1.46446,0 -2.625,1.1605 -2.625,2.625 0,1.4644 0.81862,3.0312 3.34375,3.0312 1.46447,0 1.9375,-2.7855 1.9375,-4.25 0,-1.4642 -1.19178,-1.4062 -2.65625,-1.4062 z m 38.96875,7.1875 c -1.46447,0 -4.0625,1.348 -4.0625,2.8125 0,1.4644 0.47303,2.8437 1.9375,2.8437 1.46446,0 3.34375,-1.3793 3.34375,-2.8437 0,-1.4645 0.24571,-2.8125 -1.21875,-2.8125 z"
         style="fill:url(#linearGradient6953-3);fill-opacity:1;stroke:none"
         inkscape:connector-curvature="0" />
    </g>
  </g>
</svg>
